<?xml version="1.0" encoding="UTF-8" standalone="no"?>
<svg
   width="16"
   height="16"
   fill="currentColor"
   class="bi bi-file-minus"
   viewBox="0 0 16 16"
   version="1.1"
   id="svg6"
   sodipodi:docname="copy_file.svg"
   inkscape:version="1.1.2 (0a00cf5339, 2022-02-04)"
   xmlns:inkscape="http://www.inkscape.org/namespaces/inkscape"
   xmlns:sodipodi="http://sodipodi.sourceforge.net/DTD/sodipodi-0.dtd"
   xmlns="http://www.w3.org/2000/svg"
   xmlns:svg="http://www.w3.org/2000/svg">
  <defs
     id="defs10" />
  <sodipodi:namedview
     id="namedview8"
     pagecolor="#ffffff"
     bordercolor="#666666"
     borderopacity="1.0"
     inkscape:pageshadow="2"
     inkscape:pageopacity="0.0"
     inkscape:pagecheckerboard="0"
     showgrid="false"
     inkscape:zoom="39.25"
     inkscape:cx="8"
     inkscape:cy="8"
     inkscape:window-width="3840"
     inkscape:window-height="2479"
     inkscape:window-x="0"
     inkscape:window-y="0"
     inkscape:window-maximized="1"
     inkscape:current-layer="svg6" />
  <path
     d="M4 0a2 2 0 0 0-2 2v12a2 2 0 0 0 2 2h8a2 2 0 0 0 2-2V2a2 2 0 0 0-2-2H4zm0 1h8a1 1 0 0 1 1 1v12a1 1 0 0 1-1 1H4a1 1 0 0 1-1-1V2a1 1 0 0 1 1-1z"
     id="path4" />
  <path
     d="M 12.126896,8.0687753 A 0.37938599,0.5 0 0 0 12.125396,7.360778 L 9.8427304,4.3691703 a 0.37986534,0.50063175 0 0 0 -0.5357077,0.709975 l 1.6336253,2.139994 -6.6718558,0.024563 a 0.37938599,0.5 0 0 0 0.00212,0.9999961 L 10.94277,8.2191354 9.3182427,10.371125 a 0.37986547,0.50063191 0 0 0 0.5387087,0.70602 z"
     id="path4-3"
     style="stroke-width:0.871075" />
</svg>
