<?xml version="1.0" encoding="UTF-8" standalone="no"?>
<svg
   width="16"
   height="16"
   fill="currentColor"
   class="bi bi-telegram"
   viewBox="0 0 16 16"
   version="1.1"
   id="svg4"
   sodipodi:docname="telegram_send_video.svg"
   inkscape:version="1.1.2 (0a00cf5339, 2022-02-04)"
   xmlns:inkscape="http://www.inkscape.org/namespaces/inkscape"
   xmlns:sodipodi="http://sodipodi.sourceforge.net/DTD/sodipodi-0.dtd"
   xmlns="http://www.w3.org/2000/svg"
   xmlns:svg="http://www.w3.org/2000/svg">
  <defs
     id="defs8" />
  <sodipodi:namedview
     id="namedview6"
     pagecolor="#ffffff"
     bordercolor="#666666"
     borderopacity="1.0"
     inkscape:pageshadow="2"
     inkscape:pageopacity="0.0"
     inkscape:pagecheckerboard="0"
     showgrid="false"
     inkscape:zoom="39.25"
     inkscape:cx="8"
     inkscape:cy="8.3694268"
     inkscape:window-width="3840"
     inkscape:window-height="2454"
     inkscape:window-x="0"
     inkscape:window-y="0"
     inkscape:window-maximized="1"
     inkscape:current-layer="svg4" />
  <path
     d="M 0.03601785,5.9172499 A 1.4845181,2.025138 0 0 1 1.5205334,3.8921088 h 8.9071106 a 1.4845181,2.025138 0 0 1 1.484518,2.0251411 v 8.1005461 a 1.4845181,2.025138 0 0 1 -1.484518,2.025138 H 1.5205334 A 1.4845181,2.025138 0 0 1 0.03601785,14.017796 Z m 11.13388415,0 A 0.74225901,1.012569 0 0 0 10.427644,4.9046776 H 1.5205334 A 0.74225901,1.012569 0 0 0 0.77827561,5.9172499 v 8.1005461 a 0.74225901,1.012569 0 0 0 0.74225779,1.012569 h 8.9071106 a 0.74225901,1.012569 0 0 0 0.742258,-1.012569 z"
     id="path4"
     style="stroke-width:0.86694" />
  <path
     d="M 4.852731,7.1013804 A 0.37112952,0.50628449 0 0 0 4.2663434,7.513494 v 5.062844 a 0.37112952,0.50628449 0 0 0 0.5863876,0.412117 l 2.597905,-2.531422 a 0.37112952,0.50628449 0 0 0 0,-0.8242307 z"
     id="path2-6"
     style="stroke-width:0.86694" />
  <path
     d="m 15.988362,2.5732462 a 2.5549302,2.5257997 0 1 1 -5.10986,0 2.5549302,2.5257997 0 0 1 5.10986,0 z M 13.52509,1.9121182 c -0.248467,0.1022948 -0.745401,0.3138306 -1.490163,0.6346071 -0.12072,0.047359 -0.184274,0.094086 -0.190023,0.1395504 -0.0096,0.076721 0.08783,0.1070308 0.220363,0.1483907 l 0.05589,0.017365 c 0.130301,0.041991 0.305953,0.090929 0.396972,0.092823 0.08303,0.0019 0.175332,-0.031573 0.27721,-0.101032 0.695899,-0.4644313 1.055186,-0.699015 1.077542,-0.7040666 0.01597,-0.00379 0.03832,-0.00821 0.05302,0.00505 0.01501,0.012944 0.01341,0.037887 0.01182,0.044517 -0.0096,0.040728 -0.391861,0.3918143 -0.589549,0.5736719 -0.06164,0.056831 -0.105391,0.096928 -0.114333,0.1060835 a 2.6041124,2.5744212 0 0 1 -0.06004,0.058725 c -0.121359,0.1155554 -0.212059,0.202064 0.0048,0.3435088 0.104433,0.068196 0.188107,0.1240799 0.271461,0.1802789 0.0907,0.061251 0.1814,0.1221856 0.298927,0.1985908 0.0297,0.018945 0.05844,0.039466 0.08623,0.059041 0.10571,0.074511 0.201201,0.141445 0.318408,0.1307101 0.06834,-0.00631 0.138924,-0.069459 0.174693,-0.2588944 0.08463,-0.4473822 0.251022,-1.4163421 0.289346,-1.8157342 a 0.45541627,0.45022379 0 0 0 -0.0041,-0.099453 0.10762643,0.10639931 0 0 0 -0.03641,-0.068512 0.16798666,0.16607132 0 0 0 -0.099,-0.029362 c -0.09581,0.00158 -0.243676,0.05241 -0.952989,0.3441402 z"
     id="path2"
     style="stroke-width:0.31754" />
</svg>
