<?xml version="1.0" encoding="UTF-8" standalone="no"?>
<svg
   width="16"
   height="16"
   fill="currentColor"
   class="bi bi-file-check"
   viewBox="0 0 16 16"
   version="1.1"
   id="svg6"
   sodipodi:docname="list_files.svg"
   inkscape:version="1.1.2 (0a00cf5339, 2022-02-04)"
   xmlns:inkscape="http://www.inkscape.org/namespaces/inkscape"
   xmlns:sodipodi="http://sodipodi.sourceforge.net/DTD/sodipodi-0.dtd"
   xmlns="http://www.w3.org/2000/svg"
   xmlns:svg="http://www.w3.org/2000/svg">
  <defs
     id="defs10" />
  <sodipodi:namedview
     id="namedview8"
     pagecolor="#ffffff"
     bordercolor="#666666"
     borderopacity="1.0"
     inkscape:pageshadow="2"
     inkscape:pageopacity="0.0"
     inkscape:pagecheckerboard="0"
     showgrid="false"
     inkscape:zoom="39.25"
     inkscape:cx="8"
     inkscape:cy="8"
     inkscape:window-width="3840"
     inkscape:window-height="2479"
     inkscape:window-x="0"
     inkscape:window-y="0"
     inkscape:window-maximized="1"
     inkscape:current-layer="svg6" />
  <path
     d="M4 0a2 2 0 0 0-2 2v12a2 2 0 0 0 2 2h8a2 2 0 0 0 2-2V2a2 2 0 0 0-2-2H4zm0 1h8a1 1 0 0 1 1 1v12a1 1 0 0 1-1 1H4a1 1 0 0 1-1-1V2a1 1 0 0 1 1-1z"
     id="path4" />
  <path
     fill-rule="evenodd"
     d="M 6.2475583,10.330883 A 0.27928428,0.31352801 0 0 1 6.5268425,10.017355 H 11.55396 a 0.27928428,0.31352801 0 0 1 0,0.627056 H 6.5268425 A 0.27928428,0.31352801 0 0 1 6.2475583,10.330883 Z m 0,-2.5082245 A 0.27928428,0.31352801 0 0 1 6.5268425,7.5091305 H 11.55396 a 0.27928428,0.31352801 0 0 1 0,0.627056 H 6.5268425 A 0.27928428,0.31352801 0 0 1 6.2475583,7.8226585 Z m 0,-2.508224 A 0.27928428,0.31352801 0 0 1 6.5268425,5.0009065 H 11.55396 a 0.27928428,0.31352801 0 0 1 0,0.627056 H 6.5268425 A 0.27928428,0.31352801 0 0 1 6.2475583,5.3144345 Z M 5.6074387,4.4654006 a 0.27928428,0.31352801 0 0 1 0,0.4439557 l -0.8378529,0.940584 a 0.27928428,0.31352801 0 0 1 -0.3954665,0 L 4.094835,5.5364123 A 0.27963708,0.31392405 0 1 1 4.4903015,5.0924567 l 0.081551,0.092177 0.6401195,-0.7192333 a 0.27928428,0.31352801 0 0 1 0.3954667,2e-7 z m 0,2.5082241 a 0.27928428,0.31352801 0 0 1 0,0.4439556 L 4.7695858,8.3581644 a 0.27928428,0.31352801 0 0 1 -0.3954665,0 L 4.094835,8.0446364 A 0.27963708,0.31392405 0 1 1 4.4903015,7.6006807 l 0.081551,0.092177 0.6401195,-0.7192332 a 0.27928428,0.31352801 0 0 1 0.3954667,2e-7 z m 0,2.508224 a 0.27928428,0.31352801 0 0 1 0,0.4439557 L 4.7695858,10.866388 a 0.27928428,0.31352801 0 0 1 -0.3954665,0 L 4.094835,10.55286 a 0.27963708,0.31392405 0 0 1 0.3954665,-0.443955 l 0.081551,0.09218 0.6401195,-0.7192336 a 0.27928428,0.31352801 0 0 1 0.3954667,3e-7 z"
     id="path2"
     style="stroke-width:0.591822" />
</svg>
