<?xml version="1.0" encoding="UTF-8" standalone="no"?>
<!-- Uploaded to: SVG Repo, www.svgrepo.com, Generator: SVG Repo Mixer Tools -->

<svg
   width="16"
   height="16"
   viewBox="-7.5 0 5.42 5.42"
   preserveAspectRatio="xMidYMid"
   version="1.1"
   id="svg4"
   sodipodi:docname="rabbbitmq_send_message.svg"
   inkscape:version="1.1.2 (0a00cf5339, 2022-02-04)"
   xmlns:inkscape="http://www.inkscape.org/namespaces/inkscape"
   xmlns:sodipodi="http://sodipodi.sourceforge.net/DTD/sodipodi-0.dtd"
   xmlns="http://www.w3.org/2000/svg"
   xmlns:svg="http://www.w3.org/2000/svg">
  <defs
     id="defs8" />
  <sodipodi:namedview
     id="namedview6"
     pagecolor="#ffffff"
     bordercolor="#666666"
     borderopacity="1.0"
     inkscape:pageshadow="2"
     inkscape:pageopacity="0.0"
     inkscape:pagecheckerboard="0"
     showgrid="false"
     inkscape:zoom="25.12"
     inkscape:cx="40.44586"
     inkscape:cy="31.170382"
     inkscape:window-width="3840"
     inkscape:window-height="2479"
     inkscape:window-x="0"
     inkscape:window-y="0"
     inkscape:window-maximized="1"
     inkscape:current-layer="svg4" />
  <path
     d="M -4.0262951,1.6219343 H -5.2116006 A 0.10779053,0.11335991 0 0 1 -5.3193494,1.5086331 V 0.20949174 c 0,-0.096205 -0.074177,-0.17424435 -0.1656141,-0.17424435 h -0.4231244 c -0.091493,0 -0.165628,0.07803931 -0.165628,0.17424435 V 1.5007662 c 0,0.066994 -0.051499,0.1214466 -0.1152012,0.1217395 l -0.3884386,0.00196 c -0.064245,3.636e-4 -0.1164411,-0.054457 -0.1163159,-0.1219621 l 0.00241,-1.29271003 c 2.109e-4,-0.0963548 -0.073994,-0.17454063 -0.1656121,-0.17454063 h -0.4227762 c -0.091506,0 -0.165628,0.07803931 -0.165628,0.17424434 V 3.8472635 c 0,0.085466 0.065833,0.1547014 0.1470315,0.1547014 h 3.2719533 c 0.081268,0 0.147101,-0.069235 0.147101,-0.1547014 V 1.776636 c 0,-0.085466 -0.065833,-0.1547017 -0.1471012,-0.1547017 z m -0.5558358,1.3658419 c 0,0.1119976 -0.086338,0.2028115 -0.1928332,0.2028115 h -0.3343902 c -0.1065089,0 -0.1928473,-0.090814 -0.1928473,-0.2028115 V 2.6361086 c 0,-0.1120121 0.086338,-0.2028115 0.1928473,-0.2028115 h 0.3343902 c 0.1064951,0 0.1928332,0.090799 0.1928332,0.2028115 z"
     fill="#ff6600"
     id="path2"
     style="stroke-width:0.0142854" />
  <path
     id="path2-0"
     d="m -4.508833,4.1692468 a 1.2208011,1.2453318 0 1 1 2.4416012,0 1.2208011,1.2453318 0 0 1 -2.4416012,0 z M -2.4669571,4.0432894 -2.9901575,3.5095769 A 0.17462057,0.17812939 0 0 0 -3.237108,3.761489 l 0.2256736,0.2298534 H -3.985634 a 0.17440013,0.17790454 0 0 0 0,0.3558084 h 0.9741996 L -3.237108,4.5770029 a 0.17462057,0.17812939 0 0 0 0.2469505,0.2519131 l 0.5232004,-0.5337135 a 0.17440013,0.17790454 0 0 0 0,-0.2519131 z"
     style="stroke-width:0.352286" />
</svg>
