<?xml version="1.0" encoding="UTF-8" standalone="no"?>
<svg
   width="16"
   height="16"
   fill="currentColor"
   class="bi bi-ethernet"
   viewBox="0 0 16 16"
   version="1.1"
   id="svg6"
   sodipodi:docname="ping.svg"
   inkscape:version="1.1.2 (0a00cf5339, 2022-02-04)"
   xmlns:inkscape="http://www.inkscape.org/namespaces/inkscape"
   xmlns:sodipodi="http://sodipodi.sourceforge.net/DTD/sodipodi-0.dtd"
   xmlns="http://www.w3.org/2000/svg"
   xmlns:svg="http://www.w3.org/2000/svg">
  <defs
     id="defs10" />
  <sodipodi:namedview
     id="namedview8"
     pagecolor="#ffffff"
     bordercolor="#666666"
     borderopacity="1.0"
     inkscape:pageshadow="2"
     inkscape:pageopacity="0.0"
     inkscape:pagecheckerboard="0"
     showgrid="false"
     inkscape:zoom="39.25"
     inkscape:cx="8"
     inkscape:cy="8"
     inkscape:window-width="3840"
     inkscape:window-height="2479"
     inkscape:window-x="0"
     inkscape:window-y="0"
     inkscape:window-maximized="1"
     inkscape:current-layer="svg6" />
  <path
     d="M14 13.5v-7a.5.5 0 0 0-.5-.5H12V4.5a.5.5 0 0 0-.5-.5h-1v-.5A.5.5 0 0 0 10 3H6a.5.5 0 0 0-.5.5V4h-1a.5.5 0 0 0-.5.5V6H2.5a.5.5 0 0 0-.5.5v7a.5.5 0 0 0 .5.5h11a.5.5 0 0 0 .5-.5ZM3.75 11h.5a.25.25 0 0 1 .25.25v1.5a.25.25 0 0 1-.25.25h-.5a.25.25 0 0 1-.25-.25v-1.5a.25.25 0 0 1 .25-.25Zm2 0h.5a.25.25 0 0 1 .25.25v1.5a.25.25 0 0 1-.25.25h-.5a.25.25 0 0 1-.25-.25v-1.5a.25.25 0 0 1 .25-.25Zm1.75.25a.25.25 0 0 1 .25-.25h.5a.25.25 0 0 1 .25.25v1.5a.25.25 0 0 1-.25.25h-.5a.25.25 0 0 1-.25-.25v-1.5ZM9.75 11h.5a.25.25 0 0 1 .25.25v1.5a.25.25 0 0 1-.25.25h-.5a.25.25 0 0 1-.25-.25v-1.5a.25.25 0 0 1 .25-.25Zm1.75.25a.25.25 0 0 1 .25-.25h.5a.25.25 0 0 1 .25.25v1.5a.25.25 0 0 1-.25.25h-.5a.25.25 0 0 1-.25-.25v-1.5Z"
     id="path2" />
  <path
     d="M2 0a2 2 0 0 0-2 2v12a2 2 0 0 0 2 2h12a2 2 0 0 0 2-2V2a2 2 0 0 0-2-2H2ZM1 2a1 1 0 0 1 1-1h12a1 1 0 0 1 1 1v12a1 1 0 0 1-1 1H2a1 1 0 0 1-1-1V2Z"
     id="path4" />
</svg>
