<?xml version="1.0" encoding="UTF-8" standalone="no"?>
<svg
   width="16"
   height="16"
   fill="currentColor"
   class="bi bi-table"
   viewBox="0 0 16 16"
   version="1.1"
   id="svg4"
   sodipodi:docname="spreadsheet_sheet_list.svg"
   inkscape:version="1.1.2 (0a00cf5339, 2022-02-04)"
   xmlns:inkscape="http://www.inkscape.org/namespaces/inkscape"
   xmlns:sodipodi="http://sodipodi.sourceforge.net/DTD/sodipodi-0.dtd"
   xmlns="http://www.w3.org/2000/svg"
   xmlns:svg="http://www.w3.org/2000/svg">
  <defs
     id="defs8" />
  <sodipodi:namedview
     id="namedview6"
     pagecolor="#ffffff"
     bordercolor="#666666"
     borderopacity="1.0"
     inkscape:pageshadow="2"
     inkscape:pageopacity="0.0"
     inkscape:pagecheckerboard="0"
     showgrid="false"
     inkscape:zoom="46.4375"
     inkscape:cx="8.0107672"
     inkscape:cy="8.0107672"
     inkscape:window-width="3840"
     inkscape:window-height="2479"
     inkscape:window-x="0"
     inkscape:window-y="0"
     inkscape:window-maximized="1"
     inkscape:current-layer="svg4" />
  <path
     d="M 0,1.547066 A 1.5482435,1.547066 0 0 1 1.5482435,0 h 9.2894605 a 1.5482435,1.547066 0 0 1 1.548245,1.547066 v 9.282396 a 1.5482435,1.547066 0 0 1 -1.548245,1.547067 H 1.5482435 A 1.5482435,1.547066 0 0 1 0,10.829462 Z M 11.611827,3.094132 H 8.5153393 v 2.3205991 h 3.0964877 z m 0,3.0941321 H 8.5153393 V 8.508863 h 3.0964877 z m 0,3.0941319 H 8.5153393 v 2.320599 h 2.3223647 a 0.77412176,0.773533 0 0 0 0.774123,-0.773533 z M 7.7412176,11.602995 V 9.282396 H 4.6447305 v 2.320599 z m -3.8706088,0 V 9.282396 H 0.77412176 v 1.547066 A 0.77412176,0.773533 0 0 0 1.5482435,11.602995 Z M 0.77412176,8.508863 H 3.8706088 V 6.1882641 H 0.77412176 Z m 0,-3.0941319 H 3.8706088 V 3.094132 H 0.77412176 Z M 4.6447305,3.094132 V 5.4147311 H 7.7412176 V 3.094132 Z M 7.7412176,6.1882641 H 4.6447305 V 8.508863 h 3.0964871 z"
     id="path2"
     style="stroke-width:0.773828" />
  <path
     fill-rule="evenodd"
     d="m 12.996392,15.511634 a 0.14445052,0.16684417 0 0 1 0.14445,-0.166844 h 2.600111 a 0.14445052,0.16684417 0 0 1 0,0.333688 h -2.600111 a 0.14445052,0.16684417 0 0 1 -0.14445,-0.166844 z m 0,-1.334754 a 0.14445052,0.16684417 0 0 1 0.14445,-0.166843 h 2.600111 a 0.14445052,0.16684417 0 0 1 0,0.333687 h -2.600111 a 0.14445052,0.16684417 0 0 1 -0.14445,-0.166844 z m 0,-1.334752 a 0.14445052,0.16684417 0 0 1 0.14445,-0.166845 h 2.600111 a 0.14445052,0.16684417 0 0 1 0,0.333687 h -2.600111 a 0.14445052,0.16684417 0 0 1 -0.14445,-0.166842 z m -0.331081,-0.451814 a 0.14445052,0.16684417 0 0 1 0,0.23625 l -0.43335,0.500533 a 0.14445052,0.16684417 0 0 1 -0.204543,0 l -0.14445,-0.166844 a 0.14463299,0.16705492 0 1 1 0.204541,-0.236252 l 0.04218,0.04905 0.331081,-0.382741 a 0.14445052,0.16684417 0 0 1 0.204542,1e-6 z m 0,1.334752 a 0.14445052,0.16684417 0 0 1 0,0.236252 l -0.43335,0.500532 a 0.14445052,0.16684417 0 0 1 -0.204543,0 l -0.14445,-0.166844 a 0.14463299,0.16705492 0 1 1 0.204541,-0.236251 l 0.04218,0.04905 0.331081,-0.382742 a 0.14445052,0.16684417 0 0 1 0.204542,2e-6 z m 0,1.334754 a 0.14445052,0.16684417 0 0 1 0,0.23625 l -0.43335,0.500533 a 0.14445052,0.16684417 0 0 1 -0.204543,0 l -0.14445,-0.166844 a 0.14463299,0.16705492 0 0 1 0.204541,-0.236251 l 0.04218,0.04905 0.331081,-0.38274 a 0.14445052,0.16684417 0 0 1 0.204542,0 z"
     id="path2-7"
     style="stroke-width:0.310488" />
</svg>
