<?xml version="1.0" encoding="UTF-8" standalone="no"?>
<svg
   width="16"
   height="16"
   fill="currentColor"
   class="bi bi-tablet"
   viewBox="0 0 16 16"
   version="1.1"
   id="svg6"
   sodipodi:docname="file_to_array.svg"
   inkscape:version="1.1.2 (0a00cf5339, 2022-02-04)"
   xmlns:inkscape="http://www.inkscape.org/namespaces/inkscape"
   xmlns:sodipodi="http://sodipodi.sourceforge.net/DTD/sodipodi-0.dtd"
   xmlns="http://www.w3.org/2000/svg"
   xmlns:svg="http://www.w3.org/2000/svg">
  <defs
     id="defs10" />
  <sodipodi:namedview
     id="namedview8"
     pagecolor="#ffffff"
     bordercolor="#666666"
     borderopacity="1.0"
     inkscape:pageshadow="2"
     inkscape:pageopacity="0.0"
     inkscape:pagecheckerboard="0"
     showgrid="false"
     inkscape:zoom="39.25"
     inkscape:cx="8"
     inkscape:cy="7.9872611"
     inkscape:window-width="3840"
     inkscape:window-height="2476"
     inkscape:window-x="0"
     inkscape:window-y="0"
     inkscape:window-maximized="1"
     inkscape:current-layer="svg6" />
  <path
     d="M12 1a1 1 0 0 1 1 1v12a1 1 0 0 1-1 1H4a1 1 0 0 1-1-1V2a1 1 0 0 1 1-1h8zM4 0a2 2 0 0 0-2 2v12a2 2 0 0 0 2 2h8a2 2 0 0 0 2-2V2a2 2 0 0 0-2-2H4z"
     id="path2" />
  <text
     xml:space="preserve"
     style="font-size:5.21495px;line-height:1.25;font-family:sans-serif;stroke-width:0.977807"
     x="6.715189"
     y="5.3792863"
     id="text12062"
     transform="scale(0.9403831,1.0633964)"><tspan
       sodipodi:role="line"
       id="tspan12060"
       x="6.715189"
       y="5.3792863"
       style="font-style:normal;font-variant:normal;font-weight:bold;font-stretch:normal;font-family:sans-serif;-inkscape-font-specification:'sans-serif Bold';stroke-width:0.977807">A</tspan></text>
  <path
     d="m 7.6682071,6.7466463 a 0.38350929,-0.3518485 0 0 1 0.54305,0 l 2.3010539,2.111091 a 0.38399378,-0.352293 0 0 1 -0.5430489,0.498217 l -1.646021,-1.510837 v 6.1876067 a 0.38350929,-0.3518485 0 0 1 -0.767018,0 V 7.8451173 l -1.646022,1.510837 a 0.38399375,-0.35229297 0 0 1 -0.543049,-0.498217 z"
     id="path4-7"
     style="stroke-width:0.734676" />
</svg>
