<?xml version="1.0" encoding="UTF-8" standalone="no"?>
<svg
   width="16"
   height="16"
   fill="currentColor"
   class="bi bi-table"
   viewBox="0 0 16 16"
   version="1.1"
   id="svg4"
   sodipodi:docname="spreadsheet_sheet_activate.svg"
   inkscape:version="1.1.2 (0a00cf5339, 2022-02-04)"
   xmlns:inkscape="http://www.inkscape.org/namespaces/inkscape"
   xmlns:sodipodi="http://sodipodi.sourceforge.net/DTD/sodipodi-0.dtd"
   xmlns="http://www.w3.org/2000/svg"
   xmlns:svg="http://www.w3.org/2000/svg">
  <defs
     id="defs8" />
  <sodipodi:namedview
     id="namedview6"
     pagecolor="#ffffff"
     bordercolor="#666666"
     borderopacity="1.0"
     inkscape:pageshadow="2"
     inkscape:pageopacity="0.0"
     inkscape:pagecheckerboard="0"
     showgrid="false"
     inkscape:zoom="185.75"
     inkscape:cx="8"
     inkscape:cy="8.0242261"
     inkscape:window-width="3840"
     inkscape:window-height="2480"
     inkscape:window-x="0"
     inkscape:window-y="0"
     inkscape:window-maximized="1"
     inkscape:current-layer="svg4" />
  <path
     d="M 0,1.547066 A 1.5482435,1.547066 0 0 1 1.5482435,0 h 9.2894605 a 1.5482435,1.547066 0 0 1 1.548245,1.547066 v 9.282396 a 1.5482435,1.547066 0 0 1 -1.548245,1.547067 H 1.5482435 A 1.5482435,1.547066 0 0 1 0,10.829462 Z M 11.611827,3.094132 H 8.5153393 v 2.3205991 h 3.0964877 z m 0,3.0941321 H 8.5153393 V 8.508863 h 3.0964877 z m 0,3.0941319 H 8.5153393 v 2.320599 h 2.3223647 a 0.77412176,0.773533 0 0 0 0.774123,-0.773533 z M 7.7412176,11.602995 V 9.282396 H 4.6447305 v 2.320599 z m -3.8706088,0 V 9.282396 H 0.77412176 v 1.547066 A 0.77412176,0.773533 0 0 0 1.5482435,11.602995 Z M 0.77412176,8.508863 H 3.8706088 V 6.1882641 H 0.77412176 Z m 0,-3.0941319 H 3.8706088 V 3.094132 H 0.77412176 Z M 4.6447305,3.094132 V 5.4147311 H 7.7412176 V 3.094132 Z M 7.7412176,6.1882641 H 4.6447305 V 8.508863 h 3.0964871 z"
     id="path2"
     style="stroke-width:0.773828" />
  <path
     d="m 15.841345,12.117366 a 0.5,0.5 0 0 1 0,0.708 l -3,3 a 0.5,0.5 0 0 1 -0.707,0 l -1.5,-1.5 a 0.50027817,0.50027817 0 0 1 0.707,-0.708 l 1.146,1.147 2.646,-2.647 a 0.5,0.5 0 0 1 0.708,0 z"
     id="path4" />
</svg>
