<?xml version="1.0" encoding="UTF-8" standalone="no"?>
<svg
   width="16"
   height="16"
   viewBox="0 0 26.597403 26.624"
   preserveAspectRatio="xMidYMid"
   version="1.1"
   id="svg85"
   sodipodi:docname="apachekafka_send_message.svg"
   inkscape:version="1.1.2 (0a00cf5339, 2022-02-04)"
   xmlns:inkscape="http://www.inkscape.org/namespaces/inkscape"
   xmlns:sodipodi="http://sodipodi.sourceforge.net/DTD/sodipodi-0.dtd"
   xmlns="http://www.w3.org/2000/svg"
   xmlns:svg="http://www.w3.org/2000/svg">
  <defs
     id="defs89" />
  <sodipodi:namedview
     id="namedview87"
     pagecolor="#ffffff"
     bordercolor="#666666"
     borderopacity="1.0"
     inkscape:pageshadow="2"
     inkscape:pageopacity="0.0"
     inkscape:pagecheckerboard="0"
     showgrid="false"
     width="16px"
     fit-margin-top="0"
     fit-margin-left="0"
     fit-margin-right="0"
     fit-margin-bottom="0"
     inkscape:zoom="92.875"
     inkscape:cx="8"
     inkscape:cy="10.131898"
     inkscape:window-width="3840"
     inkscape:window-height="2479"
     inkscape:window-x="0"
     inkscape:window-y="0"
     inkscape:window-maximized="1"
     inkscape:current-layer="svg85" />
  <path
     d="m 15.697129,14.730738 c -1.252988,0 -2.37631,0.455748 -3.145552,1.173274 l -1.971136,-1.145627 c 0.209244,-0.472971 0.329387,-0.980832 0.329387,-1.512399 0,-0.522352 -0.115963,-1.021697 -0.318318,-1.487677 l 1.966724,-1.133488 c 0.769165,0.713905 1.889545,1.167172 3.138895,1.167172 2.312677,0 4.194481,-1.544684 4.194481,-3.4436188 0,-1.898935 -1.881804,-3.4436193 -4.194481,-3.4436193 -2.312678,0 -4.194482,1.5446843 -4.194482,3.4436193 0,0.3398878 0.06255,0.6676367 0.174797,0.9780352 L 9.7094039,10.46047 C 8.8872895,9.6231438 7.7035852,9.038509 6.354917,8.8600489 V 6.912749 C 8.2549124,6.5851273 9.6864888,5.1992015 9.6864888,3.5431704 c 0,-1.8989352 -1.8818035,-3.44361933 -4.1944811,-3.44361933 -2.3126771,0 -4.1944807,1.54468413 -4.1944807,3.44361933 0,1.6338506 1.3944962,3.0026804 3.2564823,3.3536901 V 8.869455 c -2.5411199,0.3661991 -4.47982095,2.186899 -4.47982095,4.376531 0,2.200309 1.95789925,4.027682 4.51736565,4.381425 v 2.082923 c -1.8810294,0.339443 -3.294027,1.716663 -3.294027,3.361635 0,1.898936 1.8818035,3.44362 4.1944807,3.44362 2.3126776,0 4.1944811,-1.544684 4.1944811,-3.44362 0,-1.644972 -1.4129974,-3.022192 -3.294027,-3.361635 V 17.627347 A 5.4161168,4.4465677 0 0 0 9.690205,16.052729 l 1.984297,1.153063 c -0.110158,0.307602 -0.171855,0.63211 -0.171855,0.968566 0,1.898934 1.881804,3.443619 4.194482,3.443619 2.312677,0 4.194481,-1.544685 4.194481,-3.443619 0,-1.898936 -1.881804,-3.44362 -4.194481,-3.44362 z m 0,-8.0519954 c 1.121464,0 2.033608,0.7491766 2.033608,1.6696316 0,0.9204551 -0.912144,1.6695688 -2.033608,1.6695688 -1.121465,0 -2.033608,-0.7491137 -2.033608,-1.6695688 0,-0.920455 0.912143,-1.6696316 2.033608,-1.6696316 z M 3.4583227,3.5431704 c 0,-0.9204551 0.9122206,-1.6695682 2.033685,-1.6695682 1.1214648,0 2.0336083,0.7491131 2.0336083,1.6695682 0,0.9204551 -0.9121435,1.6695681 -2.0336083,1.6695681 -1.1214645,0 -2.0336851,-0.749113 -2.033685,-1.6695681 z M 7.525616,23.071969 c 0,0.920455 -0.9121435,1.669568 -2.0336083,1.669568 -1.1214644,0 -2.033685,-0.749113 -2.033685,-1.669568 0,-0.920455 0.9122206,-1.669567 2.033685,-1.669567 1.1214648,0 2.0336083,0.749112 2.0336083,1.669567 z M 5.4918526,15.574484 c -1.5641047,0 -2.8365225,-1.044449 -2.8365225,-2.328498 0,-1.284113 1.2724178,-2.328752 2.8365225,-2.328752 1.564028,0 2.836446,1.044639 2.836446,2.328752 0,1.284049 -1.2724171,2.328498 -2.836446,2.328498 z m 10.2052764,4.269505 c -1.121465,0 -2.033608,-0.749176 -2.033608,-1.669631 0,-0.920455 0.912143,-1.669569 2.033608,-1.669569 1.121464,0 2.033608,0.749114 2.033608,1.669569 0,0.920455 -0.912144,1.669631 -2.033608,1.669631 z"
     style="fill:#231f20;stroke-width:0.0701416"
     id="path83" />
  <path
     id="path2-0"
     d="m 18.530881,22.520386 a 4.0339618,4.1288611 0 1 1 8.06792,0 4.0339618,4.1288611 0 0 1 -8.06792,0 z m 6.747086,-0.417608 -1.728841,-1.769508 a 0.57700858,0.59058278 0 0 0 -0.816013,0.835207 l 0.745707,0.762072 h -3.219103 a 0.57628016,0.5898373 0 0 0 0,1.179672 h 3.219103 l -0.745707,0.762069 a 0.57700858,0.59058278 0 0 0 0.816013,0.83521 l 1.728841,-1.769511 a 0.57628016,0.5898373 0 0 0 0,-0.835211 z"
     style="stroke-width:1.16603" />
</svg>
