<?xml version="1.0" encoding="UTF-8" standalone="no"?>
<svg
   width="16"
   height="16"
   fill="currentColor"
   class="bi bi-folder-symlink"
   viewBox="0 0 16 16"
   version="1.1"
   id="svg6"
   sodipodi:docname="copy_folder.svg"
   inkscape:version="1.1.2 (0a00cf5339, 2022-02-04)"
   xmlns:inkscape="http://www.inkscape.org/namespaces/inkscape"
   xmlns:sodipodi="http://sodipodi.sourceforge.net/DTD/sodipodi-0.dtd"
   xmlns="http://www.w3.org/2000/svg"
   xmlns:svg="http://www.w3.org/2000/svg">
  <defs
     id="defs10" />
  <sodipodi:namedview
     id="namedview8"
     pagecolor="#ffffff"
     bordercolor="#666666"
     borderopacity="1.0"
     inkscape:pageshadow="2"
     inkscape:pageopacity="0.0"
     inkscape:pagecheckerboard="0"
     showgrid="false"
     inkscape:zoom="39.25"
     inkscape:cx="8"
     inkscape:cy="8"
     inkscape:window-width="3840"
     inkscape:window-height="2479"
     inkscape:window-x="0"
     inkscape:window-y="0"
     inkscape:window-maximized="1"
     inkscape:current-layer="svg6" />
  <path
     d="m.5 3 .04.87a1.99 1.99 0 0 0-.342 1.311l.637 7A2 2 0 0 0 2.826 14h10.348a2 2 0 0 0 1.991-1.819l.637-7A2 2 0 0 0 13.81 3H9.828a2 2 0 0 1-1.414-.586l-.828-.828A2 2 0 0 0 6.172 1H2.5a2 2 0 0 0-2 2zm.694 2.09A1 1 0 0 1 2.19 4h11.62a1 1 0 0 1 .996 1.09l-.636 7a1 1 0 0 1-.996.91H2.826a1 1 0 0 1-.995-.91l-.637-7zM6.172 2a1 1 0 0 1 .707.293L7.586 3H2.19c-.24 0-.47.042-.683.12L1.5 2.98a1 1 0 0 1 1-.98h3.672z"
     id="path4" />
  <path
     d="m 12.319987,8.6878288 a 0.37938599,0.5 0 0 0 -0.0015,-0.7079973 L 10.035821,4.9882238 a 0.3798653,0.5006317 0 0 0 -0.5357081,0.709975 l 1.6336261,2.139994 -6.6718566,0.024563 a 0.37938599,0.5 0 0 0 0.00212,0.9999961 L 11.135861,8.8381889 9.5113329,10.990178 a 0.37986543,0.50063186 0 0 0 0.5387091,0.70602 z"
     id="path4-3"
     style="stroke-width:0.871075" />
  <path
     d="m 4.0256301,6.7942439 a 0.5,0.29667533 0 0 1 0.5,0.296675 v 2.3734027 a 0.5,0.29667533 0 0 1 -1,0 V 7.0909189 a 0.5,0.29667533 0 0 1 0.5,-0.296675 z"
     id="path2"
     style="stroke-width:0.770293" />
</svg>
