<?xml version="1.0" encoding="UTF-8" standalone="no"?>
<svg
   width="16"
   height="16"
   viewBox="0 0 1.2336384 1.2336384"
   version="1.1"
   id="svg16"
   sodipodi:docname="cdnlogo.com_hl7.svg"
   inkscape:version="1.1.2 (0a00cf5339, 2022-02-04)"
   xmlns:inkscape="http://www.inkscape.org/namespaces/inkscape"
   xmlns:sodipodi="http://sodipodi.sourceforge.net/DTD/sodipodi-0.dtd"
   xmlns="http://www.w3.org/2000/svg"
   xmlns:svg="http://www.w3.org/2000/svg">
  <defs
     id="defs20" />
  <sodipodi:namedview
     id="namedview18"
     pagecolor="#ffffff"
     bordercolor="#666666"
     borderopacity="1.0"
     inkscape:pageshadow="2"
     inkscape:pageopacity="0.0"
     inkscape:pagecheckerboard="0"
     showgrid="false"
     width="16px"
     inkscape:zoom="185.75"
     inkscape:cx="8"
     inkscape:cy="4.0699865"
     inkscape:window-width="3840"
     inkscape:window-height="2479"
     inkscape:window-x="0"
     inkscape:window-y="0"
     inkscape:window-maximized="1"
     inkscape:current-layer="svg16" />
  <g
     fill-rule="evenodd"
     clip-rule="evenodd"
     id="g14"
     transform="matrix(0.00681417,0,0,0.00687486,-0.04215713,-0.01938473)">
    <path
       fill="#ffffff"
       d="M 0,0 H 192.756 V 192.756 H 0 Z"
       id="path2" />
    <path
       fill="#0c0e0f"
       d="M 184.252,171.047 H 9.002 L 8.836,21.045 h 175.25 z"
       id="path4" />
    <path
       d="m 8.504,21.045 h 90.199 v 5.981 h -0.166 c -1.661,0.332 -3.82,0.166 -5.481,0.166 H 67.309 c -0.665,0 -1.827,-0.166 -2.325,0.166 -0.333,0.166 -0.333,2.824 -0.333,3.488 0,0.167 0,0.167 0.166,0.167 0.665,0.332 1.495,0.166 2.16,0.332 1.993,0.333 4.651,1.329 5.98,2.99 1.495,1.827 1.828,4.485 1.994,7.143 0.166,1.163 0.332,2.326 0.498,3.655 v 11.794 c 0,5.648 0.166,11.129 0,16.445 v 4.984 c 0,1.329 0.166,2.325 0,3.654 v 1.661 c 0.166,1.163 0,2.492 0,3.488 0,0.498 0.166,1.163 0,1.495 -0.166,0.166 -0.166,0.166 -0.166,0.333 -0.498,0.332 -8.14,0.166 -9.469,0.166 H 38.738 V 46.13 c 0,-3.156 0.166,-6.146 0.997,-8.804 0.166,-0.831 0.332,-1.495 0.831,-2.159 0.831,-1.329 1.993,-2.16 3.322,-2.824 1.329,-0.664 2.658,-0.997 4.319,-0.997 0.167,-0.166 0.997,-0.166 0.997,-0.332 h 0.166 c 0,-0.665 0.167,-3.323 -0.166,-3.655 -0.332,-0.332 -5.481,-0.332 -6.312,-0.332 H 16.148 c -0.167,0.166 -0.665,0 -0.665,0.332 -0.332,0.498 -0.332,3.322 0.167,3.655 0.499,0.332 1.495,0.166 2.159,0.332 1.994,0.333 4.153,1.329 5.482,2.658 1.827,1.993 2.16,4.983 2.326,7.808 0.166,1.163 0.332,2.325 0.498,3.654 v 97.176 c 0,1.328 -0.166,2.824 -0.332,4.318 -0.166,2.16 -0.332,5.648 -1.329,7.311 -0.83,0.996 -1.827,1.992 -2.99,2.49 -0.499,0.166 -0.997,0.332 -1.661,0.498 -0.997,0.666 -2.16,0.832 -3.488,0.998 -0.333,0.166 -0.499,0.166 -0.831,0.332 v 3.488 c 0,0.166 -0.166,0 0,0 v 0.166 c 8.472,0.332 17.276,0.166 25.914,0.166 h 7.309 c 0.166,0 0.664,0 0.664,-0.166 h 0.167 v -3.322 c 0,-0.166 0,-0.332 -0.167,-0.332 -0.83,-0.498 -1.993,-0.332 -2.824,-0.498 -0.498,-0.166 -0.831,-0.332 -1.329,-0.498 -1.828,-0.666 -3.489,-1.496 -4.651,-3.322 -0.499,-0.666 -0.499,-1.496 -0.831,-2.16 -1.329,-4.318 -0.997,-10.299 -0.997,-15.449 V 98.457 c 0.83,-0.498 2.159,-0.332 3.322,-0.332 H 73.29 c 0.665,0 1.496,0.166 2.326,0.166 0,14.949 0.166,29.402 0,44.186 -0.166,1.494 -0.166,2.824 -0.332,4.318 -0.332,3.156 -0.166,6.645 -2.492,8.805 -1.163,0.83 -1.993,1.162 -3.156,1.66 -1.495,0.5 -2.99,1.33 -4.651,1.33 v 3.654 c 0.83,0.166 1.661,0.166 2.491,0.166 h 31.562 v 8.639 H 8.504 Z"
       fill="#c82f55"
       id="path6" />
    <path
       d="m 98.869,31.179 c 0.498,0.166 -0.166,0.997 -0.166,1.495 V 71.71 c -1.328,5.98 -2.657,11.794 -4.152,17.774 -1.329,5.648 -2.658,11.461 -3.987,17.109 -0.332,1.496 -0.83,3.156 -1.163,4.652 -0.166,0.83 -0.333,1.66 -0.499,2.324 h 0.166 v 0.166 h 4.651 c 0.166,0 0.499,0.166 0.499,0 0.332,-1.66 0.665,-3.322 0.831,-4.982 0.664,-3.654 0.83,-7.309 2.492,-10.299 0.166,-0.332 0.83,-1.496 1.162,-1.496 0,-0.166 0,-0.166 0.166,-0.166 v 61.795 h -0.166 c -0.83,-0.166 -1.494,-0.332 -2.325,-0.498 -1.661,-0.332 -3.987,-1.33 -5.315,-2.492 -1.827,-1.66 -2.326,-4.816 -2.492,-7.309 0,-0.832 -0.167,-1.828 -0.333,-2.658 v -6.312 -9.303 -14.617 c 0,-0.166 0,-1.496 -0.166,-1.496 0.166,-0.166 0.332,-0.166 0.332,-0.166 -0.498,-1.826 -0.332,-4.318 -0.332,-6.312 V 92.807 47.79 c 0,-3.488 0.166,-6.645 0.831,-9.635 0.333,-1.329 0.665,-2.492 1.495,-3.654 0.997,-1.329 2.492,-1.994 3.987,-2.492 0.997,-0.332 1.993,-0.665 3.156,-0.665 0.332,-0.165 0.996,-0.165 1.328,-0.165 z"
       fill="#c82f55"
       id="path8" />
    <path
       d="m 101.859,59.584 h 6.146 c 0.664,0 2.16,0.167 2.658,0.167 0,11.461 1.162,23.089 -1.328,34.551 -1.662,0.166 -3.156,0.332 -4.818,0.499 -2.658,0.332 -5.482,0.664 -6.977,3.157 -0.665,1.328 -1.495,3.322 -1.828,4.982 v 1.33 c -0.332,1.992 -0.664,4.152 -0.997,6.311 -0.166,0.5 -0.332,2.658 -0.665,2.99 -0.498,0.498 -4.152,0 -4.983,0 v -0.332 c 0.499,-2.158 0.997,-4.152 1.495,-6.312 0.831,-3.82 1.827,-7.475 2.658,-11.129 2.826,-12.128 5.649,-24.254 8.639,-36.214 z m 20.598,0 h 56.647 c 0.166,0 1.328,-0.166 1.328,0 v 5.149 c 0,0.665 0.166,1.495 0,1.994 -0.332,0.664 -0.664,1.163 -0.83,1.827 -0.664,0.831 -1.164,1.827 -1.662,2.824 -2.16,4.153 -4.484,8.14 -6.645,12.292 -2.492,4.651 -5.148,9.303 -7.641,13.953 -0.996,2.16 -1.994,4.32 -3.156,6.646 -0.83,1.826 -1.828,3.82 -2.824,5.812 -0.332,0.832 -0.664,1.828 -0.996,2.658 -1.662,3.82 -3.322,7.807 -4.32,11.795 a 267.645,267.645 0 0 0 -1.494,5.646 c -0.332,1.662 -0.498,3.654 -0.83,5.316 -0.332,2.658 -0.83,5.316 -0.664,8.305 v 4.818 c 0,0.83 0.166,1.826 0.166,2.658 0.166,0.332 0.498,1.66 0.332,2.158 0,0 -0.332,0.5 -0.332,0.666 -0.666,0.83 -7.145,1.826 -8.805,1.992 -2.99,0 -7.143,-0.498 -10.299,-0.498 -1.496,-0.166 -3.986,-0.166 -5.482,-0.664 -0.83,-0.166 -1.992,-1.662 -2.492,-2.492 -0.996,-1.66 -1.328,-4.152 -1.162,-6.146 0,-0.83 0.664,-1.826 0.664,-2.492 0.498,-0.83 0.832,-1.494 1.33,-2.324 1.162,-1.662 2.324,-3.488 3.488,-5.15 5.646,-7.807 11.461,-15.613 17.607,-22.924 0.498,-0.664 0.83,-1.162 1.328,-1.826 0.5,-0.498 0.998,-1.164 1.662,-1.828 0.83,-1.162 1.828,-2.326 2.658,-3.488 L 159.002,94.8 c 0.166,-0.167 0.166,-0.167 0.334,-0.167 V 94.467 H 131.76 c -1.328,0 -9.967,0 -10.465,-0.499 -0.332,-0.332 -0.83,-7.807 -0.83,-8.97 0,-8.472 0.332,-16.944 0.332,-25.416 0.166,0.002 1.494,0.002 1.66,0.002 z m -7.973,103.322 c 0.498,0 0.996,-1.826 1.494,-1.826 0.666,-0.334 3.656,0.166 4.652,0.166 5.316,0 10.299,-0.5 15.615,-0.5 0.332,0 1.494,0.5 1.992,0.5 1.164,0 1.994,-0.998 3.156,-0.832 0.498,-0.332 9.469,1.662 9.801,1.828 0,0.166 0.332,0.996 0.332,0.996 0.332,0.498 0.332,1.164 0.498,1.828 0.332,1.494 0.832,3.156 1.164,4.65 0.332,0.664 0.498,1.164 0.83,1.828 h -0.166 c 0,0.166 0,0.166 -0.166,0.166 -0.83,-0.332 -1.828,-0.166 -2.824,-0.166 h -37.873 c 10e-4,-1.993 0.333,-7.642 1.495,-8.638 z"
       fill="#ffffff"
       id="path10" />
    <path
       d="m 98.703,27.026 h 31.728 c 0.664,0 1.66,-0.166 2.158,0.166 0.166,0.166 0.334,0.332 0.334,0.498 0.166,0.665 0.166,2.658 -0.168,2.99 -0.332,0.333 -2.49,0.499 -3.154,0.665 -1.33,0.333 -3.156,0.997 -4.32,1.827 -2.656,1.994 -2.99,4.983 -3.488,8.306 -0.166,1.163 0,2.326 0,3.655 v 96.844 c 0,3.156 -0.498,7.807 0.998,10.133 1.162,1.994 4.152,1.994 6.477,1.994 2.492,0.166 5.316,0.166 7.975,0.166 6.811,-0.332 7.973,-0.666 8.139,-0.666 a 93.777,93.777 0 0 0 2.824,-0.498 c 2.326,-0.664 5.316,-1.494 7.143,-2.824 3.82,-2.656 5.98,-7.309 7.477,-11.295 0.332,-0.664 0.664,-1.494 0.996,-2.16 0.664,-1.66 1.162,-3.488 1.828,-5.314 0.332,-1.496 0.83,-2.99 1.328,-4.486 0.83,-0.332 2.16,-0.166 3.156,-0.166 -0.166,2.16 -0.664,4.154 -0.996,6.312 -0.5,2.492 -0.832,5.15 -1.33,7.809 -0.664,4.152 -1.494,8.305 -2.158,12.457 -0.334,1.994 -0.5,3.82 -0.832,5.648 -0.166,0.83 -0.166,1.994 -0.664,2.824 0,0 -0.166,0.166 -0.332,0.166 -0.996,0.332 -2.326,0.166 -3.322,0.166 h -7.807 c -0.998,0 -1.828,-0.166 -2.658,-0.166 h -32.559 c -3.322,0 -6.312,0.166 -9.303,0.166 -1.328,0 -2.492,0 -3.82,-0.166 h -4.984 c -0.83,-0.166 -0.664,-2.326 -0.664,-3.322 0,-0.166 0,-0.332 0.166,-0.332 h 0.666 c 0.83,-0.332 1.494,-0.498 2.158,-0.664 2.16,-0.5 4.32,-1.496 5.814,-3.322 0.996,-1.496 1.162,-4.154 1.494,-6.146 0,-0.664 0.166,-1.33 0.166,-1.828 0.334,-6.312 0,-12.625 0.168,-18.77 V 108.922 75.035 c 0,-4.817 -0.168,-9.801 0,-14.618 0,-1.827 -0.168,-3.987 -0.168,-5.814 V 49.62 46.298 43.142 c -0.166,-0.499 -0.166,-0.997 -0.332,-1.661 0,-0.665 -0.166,-1.329 -0.166,-1.994 -0.664,-4.983 -2.656,-6.81 -7.143,-8.139 -0.664,-0.166 -2.326,0.166 -2.658,-0.166 -0.499,-0.502 -0.167,-3.492 -0.167,-4.156 z"
       fill="#c82f55"
       id="path12" />
  </g>
</svg>
