<?xml version="1.0" encoding="UTF-8" standalone="no"?>
<svg
   width="16"
   height="16"
   fill="currentColor"
   class="bi bi-tablet"
   viewBox="0 0 16 16"
   version="1.1"
   id="svg6"
   sodipodi:docname="ftp_rename.svg"
   inkscape:version="1.1.2 (0a00cf5339, 2022-02-04)"
   xmlns:inkscape="http://www.inkscape.org/namespaces/inkscape"
   xmlns:sodipodi="http://sodipodi.sourceforge.net/DTD/sodipodi-0.dtd"
   xmlns="http://www.w3.org/2000/svg"
   xmlns:svg="http://www.w3.org/2000/svg">
  <defs
     id="defs10" />
  <sodipodi:namedview
     id="namedview8"
     pagecolor="#ffffff"
     bordercolor="#666666"
     borderopacity="1.0"
     inkscape:pageshadow="2"
     inkscape:pageopacity="0.0"
     inkscape:pagecheckerboard="0"
     showgrid="false"
     inkscape:zoom="39.25"
     inkscape:cx="8"
     inkscape:cy="8"
     inkscape:window-width="3840"
     inkscape:window-height="2479"
     inkscape:window-x="0"
     inkscape:window-y="0"
     inkscape:window-maximized="1"
     inkscape:current-layer="svg6" />
  <path
     d="M12 1a1 1 0 0 1 1 1v12a1 1 0 0 1-1 1H4a1 1 0 0 1-1-1V2a1 1 0 0 1 1-1h8zM4 0a2 2 0 0 0-2 2v12a2 2 0 0 0 2 2h8a2 2 0 0 0 2-2V2a2 2 0 0 0-2-2H4z"
     id="path2" />
  <text
     xml:space="preserve"
     style="font-size:5.21495px;line-height:1.25;font-family:sans-serif;stroke-width:0.977807"
     x="4.0621319"
     y="5.7667565"
     id="text12062"
     transform="scale(0.94038311,1.0633964)"><tspan
       sodipodi:role="line"
       id="tspan12060"
       x="4.0621319"
       y="5.7667565"
       style="font-style:normal;font-variant:normal;font-weight:bold;font-stretch:normal;font-family:sans-serif;-inkscape-font-specification:'sans-serif Bold';stroke-width:0.977807">FTP</tspan></text>
  <path
     d="m 12.334908,11.165956 a 0.37938599,0.5 0 0 0 -0.0015,-0.707997 L 10.050742,7.4663507 A 0.37986534,0.50063175 0 0 0 9.5150336,8.1763257 L 11.14866,10.31632 4.4768036,10.34088 a 0.37938599,0.5 0 0 0 0.0021,0.999996 l 6.6718584,-0.02456 -1.6245284,2.151989 a 0.37986547,0.50063191 0 0 0 0.5387094,0.70602 z"
     id="path4-3"
     style="stroke-width:0.871075" />
  <path
     d="m 6.4376496,10.830387 a 1.5,1.5 0 1 1 -3,0 1.5,1.5 0 0 1 3,0 z"
     id="path2-1" />
</svg>
