<?xml version="1.0" encoding="UTF-8" standalone="no"?>
<svg
   width="16"
   height="16"
   fill="currentColor"
   class="bi bi-envelope-at"
   viewBox="0 0 16 16"
   version="1.1"
   id="svg6"
   sodipodi:docname="smtp.svg"
   inkscape:version="1.1.2 (0a00cf5339, 2022-02-04)"
   xmlns:inkscape="http://www.inkscape.org/namespaces/inkscape"
   xmlns:sodipodi="http://sodipodi.sourceforge.net/DTD/sodipodi-0.dtd"
   xmlns="http://www.w3.org/2000/svg"
   xmlns:svg="http://www.w3.org/2000/svg">
  <defs
     id="defs10" />
  <sodipodi:namedview
     id="namedview8"
     pagecolor="#ffffff"
     bordercolor="#666666"
     borderopacity="1.0"
     inkscape:pageshadow="2"
     inkscape:pageopacity="0.0"
     inkscape:pagecheckerboard="0"
     showgrid="false"
     inkscape:zoom="39.25"
     inkscape:cx="8.3821656"
     inkscape:cy="8"
     inkscape:window-width="3840"
     inkscape:window-height="2479"
     inkscape:window-x="0"
     inkscape:window-y="0"
     inkscape:window-maximized="1"
     inkscape:current-layer="svg6" />
  <path
     d="M2 2a2 2 0 0 0-2 2v8.01A2 2 0 0 0 2 14h5.5a.5.5 0 0 0 0-1H2a1 1 0 0 1-.966-.741l5.64-3.471L8 9.583l7-4.2V8.5a.5.5 0 0 0 1 0V4a2 2 0 0 0-2-2H2Zm3.708 6.208L1 11.105V5.383l4.708 2.825ZM1 4.217V4a1 1 0 0 1 1-1h12a1 1 0 0 1 1 1v.217l-7 4.2-7-4.2Z"
     id="path2" />
  <path
     id="path2-0"
     d="m 8.379826,12.252094 a 3.6038408,3.6762561 0 1 1 7.207679,0 3.6038408,3.6762561 0 0 1 -7.207679,0 z m 6.027678,-0.37183 -1.544503,-1.575536 a 0.51548508,0.52584322 0 0 0 -0.729004,0.743653 l 0.666194,0.678534 H 9.9243267 a 0.51483433,0.52517944 0 0 0 0,1.050357 h 2.8758643 l -0.666194,0.67853 a 0.51548508,0.52584322 0 0 0 0.729004,0.743655 l 1.544503,-1.575538 a 0.51483433,0.52517944 0 0 0 0,-0.743655 z"
     style="stroke-width:1.03996" />
  <text
     xml:space="preserve"
     style="font-size:3.3761px;line-height:1.25;font-family:sans-serif;stroke-width:0.63302"
     x="3.680002"
     y="5.8686519"
     id="text12062"
     transform="scale(1.0473493,0.95479129)"><tspan
       sodipodi:role="line"
       id="tspan12060"
       x="3.680002"
       y="5.8686519"
       style="font-style:normal;font-variant:normal;font-weight:bold;font-stretch:normal;font-family:sans-serif;-inkscape-font-specification:'sans-serif Bold';stroke-width:0.63302">SMTP</tspan></text>
</svg>
