<?xml version="1.0" encoding="UTF-8" standalone="no"?>
<svg
   width="16"
   height="16"
   viewBox="0 0 26.597403 26.624"
   preserveAspectRatio="xMidYMid"
   version="1.1"
   id="svg85"
   sodipodi:docname="apache_kafka.svg"
   inkscape:version="1.1.2 (0a00cf5339, 2022-02-04)"
   xmlns:inkscape="http://www.inkscape.org/namespaces/inkscape"
   xmlns:sodipodi="http://sodipodi.sourceforge.net/DTD/sodipodi-0.dtd"
   xmlns="http://www.w3.org/2000/svg"
   xmlns:svg="http://www.w3.org/2000/svg">
  <defs
     id="defs89" />
  <sodipodi:namedview
     id="namedview87"
     pagecolor="#ffffff"
     bordercolor="#666666"
     borderopacity="1.0"
     inkscape:pageshadow="2"
     inkscape:pageopacity="0.0"
     inkscape:pagecheckerboard="0"
     showgrid="false"
     width="16px"
     fit-margin-top="0"
     fit-margin-left="0"
     fit-margin-right="0"
     fit-margin-bottom="0"
     inkscape:zoom="185.75"
     inkscape:cx="8"
     inkscape:cy="10.126514"
     inkscape:window-width="3840"
     inkscape:window-height="2479"
     inkscape:window-x="0"
     inkscape:window-y="0"
     inkscape:window-maximized="1"
     inkscape:current-layer="svg85" />
  <path
     d="m 21.775528,14.723986 c -1.380714,0 -2.618545,0.455748 -3.466201,1.173274 l -2.172069,-1.145627 c 0.230574,-0.472971 0.362964,-0.980832 0.362964,-1.512399 0,-0.522352 -0.127784,-1.021697 -0.350766,-1.487677 l 2.167207,-1.133488 c 0.847571,0.713905 2.08216,1.167172 3.458865,1.167172 2.548426,0 4.622056,-1.544684 4.622056,-3.4436183 0,-1.898935 -2.07363,-3.4436193 -4.622056,-3.4436193 -2.548426,0 -4.622056,1.5446843 -4.622056,3.4436193 0,0.3398878 0.06892,0.6676367 0.192615,0.9780352 L 15.17743,10.453718 C 14.271512,9.6163923 12.967144,9.0317575 11.480996,8.8532974 V 6.9059975 c 2.093676,-0.3276217 3.671183,-1.7135475 3.671183,-3.3695786 0,-1.8989352 -2.073629,-3.44361934 -4.622055,-3.44361934 -2.5484255,0 -4.6220553,1.54468414 -4.6220553,3.44361934 0,1.6338506 1.5366476,3.0026804 3.5884397,3.3536901 V 8.8627035 C 6.6963533,9.2289026 4.560026,11.049602 4.560026,13.239234 c 0,2.200309 2.1574825,4.027682 4.9778543,4.381425 v 2.082923 c -2.0727767,0.339443 -3.6298116,1.716663 -3.6298116,3.361635 0,1.898936 2.0736297,3.44362 4.6220553,3.44362 2.548426,0 4.622055,-1.544684 4.622055,-3.44362 0,-1.644972 -1.557034,-3.022192 -3.629811,-3.361635 v -2.082987 a 5.9682218,4.4465677 0 0 0 3.633906,-1.574618 l 2.186571,1.153063 c -0.121387,0.307602 -0.189373,0.63211 -0.189373,0.968566 0,1.898934 2.07363,3.443619 4.622056,3.443619 2.548426,0 4.622056,-1.544685 4.622056,-3.443619 0,-1.898936 -2.07363,-3.44362 -4.622056,-3.44362 z m 0,-8.0519949 c 1.235784,0 2.240909,0.7491766 2.240909,1.6696316 0,0.9204551 -1.005125,1.6695683 -2.240909,1.6695683 -1.235784,0 -2.240908,-0.7491132 -2.240908,-1.6695683 0,-0.920455 1.005124,-1.6696316 2.240908,-1.6696316 z M 8.2891303,3.5364189 c 0,-0.9204551 1.0052101,-1.6695682 2.2409937,-1.6695682 1.235784,0 2.240909,0.7491131 2.240909,1.6695682 0,0.9204551 -1.005125,1.6695681 -2.240909,1.6695681 -1.2357837,0 -2.2409938,-0.749113 -2.2409937,-1.6695681 z M 12.771033,23.065217 c 0,0.920455 -1.005125,1.669568 -2.240909,1.669568 -1.2357836,0 -2.2409937,-0.749113 -2.2409937,-1.669568 0,-0.920455 1.0052101,-1.669567 2.2409937,-1.669567 1.235784,0 2.240909,0.749112 2.240909,1.669567 z m -2.24108,-7.497485 c -1.7235455,0 -3.1256703,-1.044449 -3.1256703,-2.328498 0,-1.284113 1.4021248,-2.328752 3.1256703,-2.328752 1.723461,0 3.125586,1.044639 3.125586,2.328752 0,1.284049 -1.402124,2.328498 -3.125586,2.328498 z m 11.245575,4.269505 c -1.235784,0 -2.240908,-0.749176 -2.240908,-1.669631 0,-0.920455 1.005124,-1.669569 2.240908,-1.669569 1.235784,0 2.240909,0.749114 2.240909,1.669569 0,0.920455 -1.005125,1.669631 -2.240909,1.669631 z"
     style="fill:#231f20;stroke-width:0.0736299"
     id="path83" />
</svg>
