<?xml version="1.0" encoding="UTF-8" standalone="no"?>
<svg
   viewBox="0 0 16 16"
   overflow="visible"
   version="1.1"
   id="svg235"
   sodipodi:docname="mqtt_send_message.svg"
   width="16"
   height="16"
   inkscape:version="1.1.2 (0a00cf5339, 2022-02-04)"
   xmlns:inkscape="http://www.inkscape.org/namespaces/inkscape"
   xmlns:sodipodi="http://sodipodi.sourceforge.net/DTD/sodipodi-0.dtd"
   xmlns="http://www.w3.org/2000/svg"
   xmlns:svg="http://www.w3.org/2000/svg">
  <defs
     id="defs239" />
  <sodipodi:namedview
     id="namedview237"
     pagecolor="#ffffff"
     bordercolor="#666666"
     borderopacity="1.0"
     inkscape:pageshadow="2"
     inkscape:pageopacity="0.0"
     inkscape:pagecheckerboard="0"
     showgrid="false"
     width="16px"
     fit-margin-top="0"
     fit-margin-left="0"
     fit-margin-right="0"
     fit-margin-bottom="0"
     inkscape:zoom="71.640725"
     inkscape:cx="7.9284513"
     inkscape:cy="10.566616"
     inkscape:window-width="3840"
     inkscape:window-height="2479"
     inkscape:window-x="0"
     inkscape:window-y="0"
     inkscape:window-maximized="1"
     inkscape:current-layer="svg235" />
  <path
     d="M 0.03662352,6.6388546 H 0 v 4.4797824 c 0,0.323283 0.28078032,0.588837 0.62259985,0.588837 H 5.4996321 C 5.4569046,8.9076104 3.0275444,6.6388546 0.03662352,6.6388546 Z m 0,-3.6946653 H 0 V 4.8492511 C 4.0224832,4.866569 7.2941846,7.9262146 7.3369118,11.707474 H 9.4244522 C 9.387829,6.869771 5.1944358,2.9441893 0.03662352,2.9441893 Z M 12.384854,11.124409 V 7.0775963 C 10.968744,3.7985806 8.1182143,1.2065418 4.571836,2.5764725e-6 H 0.62259985 C 0.28078032,2.5764725e-6 0,0.26555667 0,0.58883992 V 1.1603585 c 6.1893749,0.017319 11.225109,4.7337899 11.261732,10.5528885 h 0.500522 c 0.347923,-0.0057 0.6226,-0.265554 0.6226,-0.588838 z M 10.755108,1.6337375 c 0.573768,0.542654 1.159743,1.229631 1.629746,1.8357872 V 0.583067 A 0.61466475,0.58133256 0 0 0 11.768358,2.5764725e-6 H 8.6248387 C 9.3573098,0.47915452 10.114196,1.0275815 10.755108,1.6337375 Z"
     fill="#660066"
     id="path233"
     style="stroke-width:0.0593609" />
  <path
     id="path2-0"
     d="m 8.7930156,12.317735 a 3.6038408,3.6762561 0 1 1 7.2076794,0 3.6038408,3.6762561 0 0 1 -7.2076794,0 z m 6.0276784,-0.37183 -1.544503,-1.575535 a 0.51548508,0.52584322 0 0 0 -0.729004,0.743652 l 0.666194,0.678534 h -2.875865 a 0.51483433,0.52517944 0 0 0 0,1.050357 h 2.875865 l -0.666194,0.67853 a 0.51548508,0.52584322 0 0 0 0.729004,0.743655 l 1.544503,-1.575538 a 0.51483433,0.52517944 0 0 0 0,-0.743655 z"
     style="stroke-width:1.03996" />
</svg>
