<?xml version="1.0" encoding="UTF-8" standalone="no"?>
<svg
   width="16"
   height="16"
   fill="currentColor"
   class="bi bi-envelope-at"
   viewBox="0 0 16 16"
   version="1.1"
   id="svg6"
   sodipodi:docname="imap4_message.svg"
   inkscape:version="1.1.2 (0a00cf5339, 2022-02-04)"
   xmlns:inkscape="http://www.inkscape.org/namespaces/inkscape"
   xmlns:sodipodi="http://sodipodi.sourceforge.net/DTD/sodipodi-0.dtd"
   xmlns="http://www.w3.org/2000/svg"
   xmlns:svg="http://www.w3.org/2000/svg">
  <defs
     id="defs10" />
  <sodipodi:namedview
     id="namedview8"
     pagecolor="#ffffff"
     bordercolor="#666666"
     borderopacity="1.0"
     inkscape:pageshadow="2"
     inkscape:pageopacity="0.0"
     inkscape:pagecheckerboard="0"
     showgrid="false"
     inkscape:zoom="39.25"
     inkscape:cx="8.3821656"
     inkscape:cy="8"
     inkscape:window-width="3840"
     inkscape:window-height="2479"
     inkscape:window-x="0"
     inkscape:window-y="0"
     inkscape:window-maximized="1"
     inkscape:current-layer="svg6" />
  <path
     d="m 14,2 a -2,2 0 0 1 2,2 v 8.01 A -2,2 0 0 1 14,14 H 8.5 a -0.5,0.5 0 0 1 0,-1 H 14 a -1,1 0 0 0 0.966,-0.741 L 9.326,8.788 8,9.583 1,5.383 V 8.5 a -0.5,0.5 0 0 1 -1,0 V 4 A -2,2 0 0 1 2,2 Z M 10.292,8.208 15,11.105 V 5.383 Z M 15,4.217 V 4 A -1,1 0 0 0 14,3 H 2 A -1,1 0 0 0 1,4 v 0.217 l 7,4.2 z"
     id="path2" />
  <text
     xml:space="preserve"
     style="font-size:3.3761px;line-height:1.25;font-family:sans-serif;stroke-width:0.63302"
     x="3.680002"
     y="5.8686519"
     id="text12062"
     transform="scale(1.0473493,0.95479129)"><tspan
       sodipodi:role="line"
       id="tspan12060"
       x="3.680002"
       y="5.8686519"
       style="font-style:normal;font-variant:normal;font-weight:bold;font-stretch:normal;font-family:sans-serif;-inkscape-font-specification:'sans-serif Bold';stroke-width:0.63302">IMAP</tspan></text>
  <path
     id="path2-0"
     d="m 0.36929882,12.328339 a 3.6038408,3.6762561 0 1 1 7.20767898,0 3.6038408,3.6762561 0 0 1 -7.20767898,0 z m 6.02767798,-0.37183 -1.544503,-1.575535 a 0.51548508,0.52584322 0 0 0 -0.729004,0.743652 l 0.666194,0.678534 H 1.9137995 a 0.51483433,0.52517944 0 0 0 0,1.050357 h 2.8758643 l -0.666194,0.67853 a 0.51548508,0.52584322 0 0 0 0.729004,0.743655 l 1.544503,-1.575538 a 0.51483433,0.52517944 0 0 0 0,-0.743655 z"
     style="stroke-width:1.03996" />
</svg>
