<?xml version="1.0" encoding="UTF-8" standalone="no"?>
<svg
   width="16"
   height="16"
   fill="currentColor"
   class="bi bi-hdd"
   viewBox="0 0 16 16"
   version="1.1"
   id="svg6"
   sodipodi:docname="redis_get.svg"
   inkscape:version="1.1.2 (0a00cf5339, 2022-02-04)"
   xmlns:inkscape="http://www.inkscape.org/namespaces/inkscape"
   xmlns:sodipodi="http://sodipodi.sourceforge.net/DTD/sodipodi-0.dtd"
   xmlns="http://www.w3.org/2000/svg"
   xmlns:svg="http://www.w3.org/2000/svg">
  <defs
     id="defs10" />
  <sodipodi:namedview
     id="namedview8"
     pagecolor="#ffffff"
     bordercolor="#666666"
     borderopacity="1.0"
     inkscape:pageshadow="2"
     inkscape:pageopacity="0.0"
     inkscape:pagecheckerboard="0"
     showgrid="false"
     inkscape:zoom="65.672542"
     inkscape:cx="7.9942086"
     inkscape:cy="7.5754643"
     inkscape:window-width="3840"
     inkscape:window-height="2480"
     inkscape:window-x="0"
     inkscape:window-y="0"
     inkscape:window-maximized="1"
     inkscape:current-layer="svg6" />
  <path
     d="M 12.20649,8.9291568 C 11.53172,9.3045116 8.0362717,10.838347 7.2921103,11.252391 6.5479469,11.666489 6.1345497,11.662483 5.5466573,11.362557 4.9588159,11.062633 1.2390375,9.4590593 0.56896003,9.1172301 0.23409327,8.9464462 0.05796718,8.8022292 0.05796718,8.6660238 V 7.3020751 c 0,0 4.84271482,-1.1251141 5.62451362,-1.4244596 0.78175,-0.2993457 1.0529998,-0.3101516 1.7182865,-0.050075 0.6653863,0.2601813 4.6435737,1.0261757 5.3011077,1.2831948 l -2.98e-4,1.344656 c 1.01e-4,0.134834 -0.151619,0.2827413 -0.495086,0.4737654"
     fill="#912626"
     id="path2"
     style="stroke-width:0.0510235" />
  <path
     d="M 12.206244,7.5732733 C 11.531522,7.9484693 8.0361735,9.4823588 7.2920104,9.8963499 6.5478982,10.3105 6.1345008,10.306441 5.5466573,10.006516 4.9587649,9.7068008 1.2391351,8.1029651 0.5691064,7.761345 -0.10091989,7.4195148 -0.11494812,7.1842653 0.54322463,6.90922 1.2013997,6.6340686 4.9006308,5.0851585 5.6825273,4.7858125 c 0.78175,-0.2992401 1.0529533,-0.3101508 1.71824,-0.049972 0.6653358,0.2600755 4.1398417,1.7360343 4.7972757,1.9930009 0.65768,0.2572819 0.682918,0.4691271 0.0081,0.8444294"
     fill="#c6302b"
     id="path4"
     style="stroke-width:0.0510235" />
  <path
     d="M 12.20649,6.7222026 C 11.53172,7.0976098 8.0362717,8.631393 7.2921103,9.0455963 6.5479469,9.4595343 6.1345497,9.4555289 5.5466573,9.1556028 4.9587649,8.855835 1.2390375,7.2521052 0.56896003,6.9102754 0.23409327,6.7394914 0.05796718,6.595485 0.05796718,6.4592275 V 5.0951211 c 0,0 4.84271482,-1.1250616 5.62451362,-1.4244073 0.78175,-0.2993453 1.0529998,-0.3102036 1.7182865,-0.050075 0.6654354,0.2601286 4.6436247,1.0259657 5.3011077,1.2830367 L 12.701577,6.24849 c 1.01e-4,0.1347827 -0.151619,0.2826887 -0.495086,0.4737132"
     fill="#912626"
     id="path6"
     style="stroke-width:0.0510235" />
  <path
     d="M 12.206244,5.3663193 C 11.531522,5.7416211 8.0361735,7.2754037 7.2920104,7.6895534 6.5478982,8.1035456 6.1345008,8.0994863 5.5466573,7.7995608 4.9587649,7.4998462 1.2391351,5.8960635 0.5691064,5.5543914 -0.10091989,5.2126667 -0.11494812,4.9773649 0.54322463,4.7022137 1.2013997,4.427221 4.9006796,2.8782045 5.6825273,2.578912 c 0.78175,-0.2992928 1.0529533,-0.3101513 1.71824,-0.050024 0.6653358,0.260076 4.1398417,1.7359289 4.7972757,1.9930007 0.65768,0.2572293 0.682918,0.4691271 0.0081,0.8444292"
     fill="#c6302b"
     id="path8"
     style="stroke-width:0.0510235" />
  <path
     d="M 12.20649,4.4334409 C 11.53172,4.8087428 8.0362717,6.3426314 7.2921103,6.7568337 6.5479469,7.1708255 6.1345497,7.1667665 5.5466573,6.8668415 4.9587649,6.5670742 1.2390375,4.9632915 0.56896003,4.6216186 0.23409327,4.4506778 0.05796718,4.3066186 0.05796718,4.1705193 V 2.8063601 c 0,0 4.84271482,-1.1250096 5.62451362,-1.4243024 0.78175,-0.2993979 1.0529998,-0.3101509 1.7182865,-0.050075 0.6654354,0.2601284 4.6436247,1.0259655 5.3011077,1.2830368 l -2.98e-4,1.3447612 c 1.01e-4,0.134676 -0.151619,0.2825838 -0.495086,0.4736603"
     fill="#912626"
     id="path10"
     style="stroke-width:0.0510235" />
  <path
     d="M 12.206244,3.0775577 C 11.531522,3.4528595 8.0361735,4.9867479 7.2920104,5.4007391 6.5478982,5.8147309 6.1345008,5.8106721 5.5466573,5.5109056 4.9588159,5.2109799 1.2391351,3.6073027 0.56915751,3.2655776 -0.10091989,2.9239054 -0.11489936,2.6885511 0.54322696,2.4134527 1.201402,2.1384071 4.900682,0.58960156 5.6825295,0.2902034 6.4642796,-0.00914176 6.7354805,-0.01989498 7.4007672,0.24023315 8.0661054,0.50036151 11.540611,1.9762151 12.198045,2.2332861 c 0.65768,0.2570187 0.682919,0.4689692 0.0081,0.8442713"
     fill="#c6302b"
     id="path12"
     style="stroke-width:0.0510235" />
  <path
     d="M 7.9249963,1.7506655 6.8379179,1.8711107 6.5945712,2.4960515 6.2015239,1.7986858 4.9462701,1.6782938 5.8829064,1.3178039 5.6018755,0.76444454 6.4788003,1.1304693 7.3054949,0.84161341 7.0820614,1.4137905 7.9250052,1.7506661 M 6.5296811,4.782494 4.5008784,3.8844574 7.4079881,3.4082141 6.5296811,4.782494 M 3.7169073,2.0980312 c 0.8581546,0 1.5538164,0.2878016 1.5538164,0.6427571 0,0.355061 -0.6956618,0.6428097 -1.5538164,0.6428097 -0.8581571,0 -1.5538188,-0.2878014 -1.5538188,-0.6428097 0,-0.3549555 0.6956617,-0.6427571 1.5538188,-0.6427571"
     fill="#ffffff"
     id="path14"
     style="stroke-width:0.0510235" />
  <path
     d="M 9.2097353,1.9215016 10.930296,2.6471203 9.2112181,3.3720539 9.2097572,1.921449"
     fill="#621b1c"
     id="path16"
     style="stroke-width:0.0510235" />
  <path
     d="M 7.3062361,2.7250798 9.2097353,1.9215016 9.2111962,3.3720539 9.0245411,3.4499599 7.3062033,2.7250791"
     fill="#9a2928"
     id="path18"
     style="stroke-width:0.0510235" />
  <path
     id="path2-0"
     d="m 15.956962,12.342279 a -3.6038408,3.6762561 0 1 1 -7.2076795,0 -3.6038408,3.6762561 0 0 1 7.2076795,0 z m -6.0276785,0.37183 1.5445035,1.575536 a -0.51548508,0.52584322 0 0 0 0.729004,-0.743653 l -0.666194,-0.678534 h 2.875865 a -0.51483433,0.52517944 0 0 0 0,-1.050357 h -2.875865 l 0.666194,-0.67853 a -0.51548508,0.52584322 0 0 0 -0.729004,-0.743655 l -1.5445035,1.575538 a -0.51483433,0.52517944 0 0 0 0,0.743655 z"
     style="stroke-width:1.03996" />
</svg>
