<?xml version="1.0" encoding="UTF-8" standalone="no"?>
<svg
   width="16"
   height="16"
   fill="currentColor"
   class="bi bi-envelope-at"
   viewBox="0 0 16 16"
   version="1.1"
   id="svg6"
   sodipodi:docname="imap_mailboxes.svg"
   inkscape:version="1.1.2 (0a00cf5339, 2022-02-04)"
   xmlns:inkscape="http://www.inkscape.org/namespaces/inkscape"
   xmlns:sodipodi="http://sodipodi.sourceforge.net/DTD/sodipodi-0.dtd"
   xmlns="http://www.w3.org/2000/svg"
   xmlns:svg="http://www.w3.org/2000/svg">
  <defs
     id="defs10" />
  <sodipodi:namedview
     id="namedview8"
     pagecolor="#ffffff"
     bordercolor="#666666"
     borderopacity="1.0"
     inkscape:pageshadow="2"
     inkscape:pageopacity="0.0"
     inkscape:pagecheckerboard="0"
     showgrid="false"
     inkscape:zoom="39.25"
     inkscape:cx="8.3821656"
     inkscape:cy="8"
     inkscape:window-width="3840"
     inkscape:window-height="2479"
     inkscape:window-x="0"
     inkscape:window-y="0"
     inkscape:window-maximized="1"
     inkscape:current-layer="svg6" />
  <path
     d="m 14,2 a -2,2 0 0 1 2,2 v 8.01 A -2,2 0 0 1 14,14 H 8.5 a -0.5,0.5 0 0 1 0,-1 H 14 a -1,1 0 0 0 0.966,-0.741 L 9.326,8.788 8,9.583 1,5.383 V 8.5 a -0.5,0.5 0 0 1 -1,0 V 4 A -2,2 0 0 1 2,2 Z M 10.292,8.208 15,11.105 V 5.383 Z M 15,4.217 V 4 A -1,1 0 0 0 14,3 H 2 A -1,1 0 0 0 1,4 v 0.217 l 7,4.2 z"
     id="path2" />
  <text
     xml:space="preserve"
     style="font-size:3.3761px;line-height:1.25;font-family:sans-serif;stroke-width:0.63302"
     x="3.680002"
     y="5.8686519"
     id="text12062"
     transform="scale(1.0473493,0.95479129)"><tspan
       sodipodi:role="line"
       id="tspan12060"
       x="3.680002"
       y="5.8686519"
       style="font-style:normal;font-variant:normal;font-weight:bold;font-stretch:normal;font-family:sans-serif;-inkscape-font-specification:'sans-serif Bold';stroke-width:0.63302">IMAP</tspan></text>
  <path
     d="m 3.9564817,9.4425578 a 0.23135742,0.19067319 0 0 1 0.2295157,0 L 5.921179,10.259784 a 0.23135742,0.19067319 0 0 1 0.1165948,0.165501 v 1.523479 l 1.6185744,0.762693 a 0.23135742,0.19067319 0 0 1 0.1165948,0.164749 v 1.634451 a 0.23135742,0.19067319 0 0 1 -0.1165948,0.165501 l -1.7351791,0.817223 a 0.23135742,0.19067319 0 0 1 -0.2295157,0 L 4.0712247,14.730688 2.4507984,15.493763 a 0.23135742,0.19067319 0 0 1 -0.2295157,0 L 0.48610364,14.676537 a 0.23135742,0.19067319 0 0 1 -0.11659475,-0.1655 v -1.634451 a 0.23135742,0.19067319 0 0 1 0.11659475,-0.1655 L 2.1046805,11.948773 v -1.523479 a 0.23135742,0.19067319 0 0 1 0.1165948,-0.165501 z m -1.6204262,2.8364562 -1.2687653,0.597567 1.2687653,0.597571 1.2687629,-0.597571 z m 1.5038216,0.926289 -1.2724666,0.599095 v 1.195141 l 1.2724666,-0.599097 z m 0.4627151,1.195139 1.2724665,0.599097 V 13.804398 L 4.3025922,13.205303 Z m 0.2350512,-1.523861 1.2687654,0.597571 1.2687629,-0.597571 -1.2687629,-0.597567 z m 1.0374078,-0.927815 v -1.195139 l -1.2724665,0.599476 v 1.195141 z M 3.8398696,12.548244 V 11.353103 L 2.5674031,10.753627 v 1.195139 z m -1.0374053,-2.122957 1.2687629,0.59757 1.2687653,-0.59757 -1.2687653,-0.5975681 z m 4.5077661,2.780016 -1.2724641,0.599095 v 1.195141 L 7.3102304,14.400442 Z M 2.1046905,14.999539 V 13.804398 L 0.83223144,13.205303 v 1.195139 z"
     id="path2-1"
     style="stroke-width:0.420064" />
</svg>
