<?xml version="1.0" encoding="UTF-8" standalone="no"?>
<svg
   width="16"
   height="16"
   fill="currentColor"
   class="bi bi-file-minus"
   viewBox="0 0 16 16"
   version="1.1"
   id="svg6"
   sodipodi:docname="file_metadata.svg"
   inkscape:version="1.1.2 (0a00cf5339, 2022-02-04)"
   xmlns:inkscape="http://www.inkscape.org/namespaces/inkscape"
   xmlns:sodipodi="http://sodipodi.sourceforge.net/DTD/sodipodi-0.dtd"
   xmlns="http://www.w3.org/2000/svg"
   xmlns:svg="http://www.w3.org/2000/svg">
  <defs
     id="defs10" />
  <sodipodi:namedview
     id="namedview8"
     pagecolor="#ffffff"
     bordercolor="#666666"
     borderopacity="1.0"
     inkscape:pageshadow="2"
     inkscape:pageopacity="0.0"
     inkscape:pagecheckerboard="0"
     showgrid="false"
     inkscape:zoom="39.25"
     inkscape:cx="8"
     inkscape:cy="8"
     inkscape:window-width="3840"
     inkscape:window-height="2479"
     inkscape:window-x="0"
     inkscape:window-y="0"
     inkscape:window-maximized="1"
     inkscape:current-layer="svg6" />
  <path
     d="M4 0a2 2 0 0 0-2 2v12a2 2 0 0 0 2 2h8a2 2 0 0 0 2-2V2a2 2 0 0 0-2-2H4zm0 1h8a1 1 0 0 1 1 1v12a1 1 0 0 1-1 1H4a1 1 0 0 1-1-1V2a1 1 0 0 1 1-1z"
     id="path4" />
  <path
     d="m 5.3392538,5.8384371 a 0.237,0.237 0 0 0 0.241,0.247 h 0.825 c 0.138,0 0.248,-0.113 0.266,-0.25 0.09,-0.656 0.54,-1.134 1.342,-1.134 0.686,0 1.3140001,0.343 1.3140001,1.168 0,0.635 -0.3740001,0.927 -0.9650001,1.371 -0.673,0.489 -1.206,1.06 -1.168,1.987 l 0.003,0.217 a 0.25,0.25 0 0 0 0.25,0.246 h 0.811 a 0.25,0.25 0 0 0 0.25,-0.25 v -0.105 c 0,-0.718 0.273,-0.927 1.0100001,-1.486 0.6090001,-0.463 1.2440001,-0.977 1.2440001,-2.056 0,-1.511 -1.2760001,-2.241 -2.6730002,-2.241 -1.267,0 -2.655,0.59 -2.75,2.286 z m 1.557,5.7629999 c 0,0.533 0.425,0.927 1.01,0.927 0.609,0 1.028,-0.394 1.028,-0.927 0,-0.552 -0.42,-0.94 -1.029,-0.94 -0.584,0 -1.009,0.388 -1.009,0.94 z"
     id="path2" />
</svg>
