<?xml version="1.0" encoding="UTF-8" standalone="no"?>
<svg
   width="16"
   height="16"
   fill="currentColor"
   class="bi bi-telegram"
   viewBox="0 0 16 16"
   version="1.1"
   id="svg4"
   sodipodi:docname="telegram_send_audio.svg"
   inkscape:version="1.1.2 (0a00cf5339, 2022-02-04)"
   xmlns:inkscape="http://www.inkscape.org/namespaces/inkscape"
   xmlns:sodipodi="http://sodipodi.sourceforge.net/DTD/sodipodi-0.dtd"
   xmlns="http://www.w3.org/2000/svg"
   xmlns:svg="http://www.w3.org/2000/svg">
  <defs
     id="defs8" />
  <sodipodi:namedview
     id="namedview6"
     pagecolor="#ffffff"
     bordercolor="#666666"
     borderopacity="1.0"
     inkscape:pageshadow="2"
     inkscape:pageopacity="0.0"
     inkscape:pagecheckerboard="0"
     showgrid="false"
     inkscape:zoom="39.25"
     inkscape:cx="8"
     inkscape:cy="8.3694268"
     inkscape:window-width="3840"
     inkscape:window-height="2454"
     inkscape:window-x="0"
     inkscape:window-y="0"
     inkscape:window-maximized="1"
     inkscape:current-layer="svg4" />
  <path
     d="m 16,7.0780973 a 7.50592,7.0781872 0 1 1 -15.01183999,0 7.50592,7.0781872 0 0 1 15.01183999,0 z M 8.7633549,5.2253819 C 8.0334041,5.5120485 6.5735027,6.1048467 4.385527,7.0037764 4.0308723,7.1364924 3.8441625,7.267439 3.8272742,7.3948462 3.799127,7.6098463 4.0852902,7.6947844 4.4746598,7.8106897 l 0.164192,0.048663 C 5.0216537,7.9770274 5.5376857,8.1141672 5.8050841,8.1194759 6.0490265,8.124788 6.3201779,8.0309985 6.6194765,7.8363484 8.6639014,6.5348468 9.719422,5.8774601 9.7850985,5.8633038 c 0.046915,-0.010613 0.1125894,-0.023004 0.1557481,0.014157 0.044096,0.036275 0.039409,0.1061727 0.03471,0.124753 C 9.947414,6.1163487 8.8243404,7.1002167 8.2435699,7.6098463 8.0624896,7.7691055 7.9339507,7.8814716 7.90768,7.90713 A 7.6504089,7.2144423 0 0 1 7.7312909,8.0716979 c -0.3565312,0.3238271 -0.6229914,0.566255 0.014074,0.9626335 0.3068045,0.191111 0.5526234,0.3477159 0.7975039,0.5052056 0.2664601,0.1716461 0.5329205,0.3424073 0.8781922,0.556522 0.087252,0.05309 0.1716986,0.110597 0.2533256,0.165453 0.3105576,0.208807 0.5910914,0.396379 0.9354244,0.366296 0.200784,-0.01769 0.408135,-0.19465 0.513217,-0.7255139 0.248634,-1.2537239 0.737457,-3.9690935 0.850046,-5.0883319 A 1.3379302,1.2616869 0 0 0 11.960881,4.5352587 0.31618688,0.29816863 0 0 0 11.853918,4.3432628 0.49351425,0.4653908 0 0 0 11.563064,4.2609787 c -0.281472,0.00442 -0.715877,0.1468724 -2.7997079,0.964403 z"
     id="path2"
     style="stroke-width:0.911114" />
  <path
     fill-rule="evenodd"
     d="m 2.4441284,11.53961 a 0.18454364,0.18874183 0 0 1 0.184544,0.188742 v 4.15232 a 0.18454367,0.18874187 0 0 1 -0.369087,0 v -4.15232 a 0.18454364,0.18874183 0 0 1 0.184543,-0.188742 z m -0.738174,0.754968 a 0.18454364,0.18874183 0 0 1 0.184544,0.188741 v 2.642386 a 0.184544,0.18874221 0 0 1 -0.369088,0 v -2.642386 a 0.18454364,0.18874183 0 0 1 0.184544,-0.188741 z m 1.476349,0 a 0.18454364,0.18874183 0 0 1 0.184544,0.188741 v 2.642386 a 0.18454367,0.18874187 0 0 1 -0.369087,0 v -2.642386 a 0.18454364,0.18874183 0 0 1 0.184543,-0.188741 z m -2.21452304,0.566225 a 0.18454364,0.18874183 0 0 1 0.18454304,0.188742 v 1.509934 a 0.18454367,0.18874186 0 0 1 -0.36908704,0 v -1.509934 a 0.18454364,0.18874183 0 0 1 0.184544,-0.188742 z m 2.95269804,0 a 0.18454364,0.18874183 0 0 1 0.184544,0.188742 v 1.509934 a 0.184544,0.18874221 0 0 1 -0.369088,0 v -1.509934 a 0.18454364,0.18874183 0 0 1 0.184544,-0.188742 z m -3.69087304,0.377484 a 0.18454364,0.18874183 0 0 1 0.184543,0.188742 v 0.754967 a 0.18454367,0.18874187 0 0 1 -0.369087,0 v -0.754967 a 0.18454364,0.18874183 0 0 1 0.184544,-0.188742 z m 4.42904704,0 a 0.18454364,0.18874183 0 0 1 0.184544,0.188742 v 0.754967 a 0.184544,0.18874221 0 0 1 -0.369088,0 v -0.754967 a 0.18454364,0.18874183 0 0 1 0.184544,-0.188742 z"
     id="path2-7"
     style="stroke-width:0.373262" />
</svg>
