<?xml version="1.0" encoding="UTF-8" standalone="no"?>
<svg
   width="16"
   height="16"
   fill="currentColor"
   class="bi bi-database-gear"
   viewBox="0 0 16 16"
   version="1.1"
   id="svg6"
   sodipodi:docname="sql_count.svg"
   inkscape:version="1.1.2 (0a00cf5339, 2022-02-04)"
   xmlns:inkscape="http://www.inkscape.org/namespaces/inkscape"
   xmlns:sodipodi="http://sodipodi.sourceforge.net/DTD/sodipodi-0.dtd"
   xmlns="http://www.w3.org/2000/svg"
   xmlns:svg="http://www.w3.org/2000/svg">
  <defs
     id="defs10" />
  <sodipodi:namedview
     id="namedview8"
     pagecolor="#ffffff"
     bordercolor="#666666"
     borderopacity="1.0"
     inkscape:pageshadow="2"
     inkscape:pageopacity="0.0"
     inkscape:pagecheckerboard="0"
     showgrid="false"
     inkscape:zoom="39.25"
     inkscape:cx="7.6178344"
     inkscape:cy="8"
     inkscape:window-width="3840"
     inkscape:window-height="2479"
     inkscape:window-x="0"
     inkscape:window-y="0"
     inkscape:window-maximized="1"
     inkscape:current-layer="svg6" />
  <path
     d="M12.096 6.223A4.92 4.92 0 0 0 13 5.698V7c0 .289-.213.654-.753 1.007a4.493 4.493 0 0 1 1.753.25V4c0-1.007-.875-1.755-1.904-2.223C11.022 1.289 9.573 1 8 1s-3.022.289-4.096.777C2.875 2.245 2 2.993 2 4v9c0 1.007.875 1.755 1.904 2.223C4.978 15.71 6.427 16 8 16c.536 0 1.058-.034 1.555-.097a4.525 4.525 0 0 1-.813-.927C8.5 14.992 8.252 15 8 15c-1.464 0-2.766-.27-3.682-.687C3.356 13.875 3 13.373 3 13v-1.302c.271.202.58.378.904.525C4.978 12.71 6.427 13 8 13h.027a4.552 4.552 0 0 1 0-1H8c-1.464 0-2.766-.27-3.682-.687C3.356 10.875 3 10.373 3 10V8.698c.271.202.58.378.904.525C4.978 9.71 6.427 10 8 10c.262 0 .52-.008.774-.024a4.525 4.525 0 0 1 1.102-1.132C9.298 8.944 8.666 9 8 9c-1.464 0-2.766-.27-3.682-.687C3.356 7.875 3 7.373 3 7V5.698c.271.202.58.378.904.525C4.978 6.711 6.427 7 8 7s3.022-.289 4.096-.777ZM3 4c0-.374.356-.875 1.318-1.313C5.234 2.271 6.536 2 8 2s2.766.27 3.682.687C12.644 3.125 13 3.627 13 4c0 .374-.356.875-1.318 1.313C10.766 5.729 9.464 6 8 6s-2.766-.27-3.682-.687C3.356 4.875 3 4.373 3 4Z"
     id="path2" />
  <path
     d="M 10.1807,14.076286 V 10.973803 H 9.7082442 L 9.024513,11.510179 v 0.493016 l 0.6599877,-0.511662 h 0.024137 v 2.584753 h 0.4724553 z m 1.293009,-2.207078 v -0.02732 c 0,-0.267971 0.177069,-0.50689 0.481307,-0.50689 0.272043,0 0.472455,0.190783 0.472455,0.479572 0,0.270573 -0.169027,0.477406 -0.324761,0.661689 l -1.070066,1.277417 v 0.322607 h 1.923622 v -0.429269 h -1.258402 v -0.02992 l 0.711097,-0.86115 c 0.261578,-0.313934 0.497805,-0.577569 0.497805,-0.984296 -4.02e-4,-0.49128 -0.371846,-0.859415 -0.941285,-0.859415 -0.633025,0 -0.949738,0.46136 -0.949738,0.932262 v 0.02472 z m 2.639545,0.81649 h 0.316312 c 0.331202,0 0.55294,0.208566 0.554952,0.511225 0.004,0.306563 -0.221336,0.527271 -0.571853,0.52467 -0.309873,-0.0021 -0.533624,-0.181685 -0.554952,-0.413231 h -0.440664 c 0.0168,0.456592 0.37748,0.831666 0.991592,0.831666 0.594792,0 1.063222,-0.3638 1.054369,-0.929661 -0.0081,-0.495618 -0.371043,-0.715892 -0.624171,-0.74321 v -0.02732 c 0.2153,-0.03902 0.542074,-0.286183 0.533624,-0.727598 -0.01034,-0.456593 -0.375468,-0.80435 -0.949336,-0.800012 -0.603647,0.0021 -0.932433,0.381577 -0.944907,0.822994 h 0.449111 c 0.01276,-0.21594 0.200412,-0.40933 0.485334,-0.40933 0.282908,0 0.485331,0.188616 0.485331,0.463963 0.002,0.277512 -0.202825,0.479574 -0.482918,0.479574 h -0.301824 z"
     id="path2-6"
     style="stroke-width:0.417731" />
</svg>
