<?xml version="1.0" encoding="UTF-8" standalone="no"?>
<svg
   width="16"
   height="16"
   fill="currentColor"
   class="bi bi-repeat"
   viewBox="0 0 16 16"
   version="1.1"
   id="svg4"
   sodipodi:docname="loop_array.svg"
   inkscape:version="1.1.2 (0a00cf5339, 2022-02-04)"
   xmlns:inkscape="http://www.inkscape.org/namespaces/inkscape"
   xmlns:sodipodi="http://sodipodi.sourceforge.net/DTD/sodipodi-0.dtd"
   xmlns="http://www.w3.org/2000/svg"
   xmlns:svg="http://www.w3.org/2000/svg">
  <defs
     id="defs8" />
  <sodipodi:namedview
     id="namedview6"
     pagecolor="#ffffff"
     bordercolor="#666666"
     borderopacity="1.0"
     inkscape:pageshadow="2"
     inkscape:pageopacity="0.0"
     inkscape:pagecheckerboard="0"
     showgrid="false"
     inkscape:zoom="39.25"
     inkscape:cx="8"
     inkscape:cy="8"
     inkscape:window-width="3840"
     inkscape:window-height="2479"
     inkscape:window-x="0"
     inkscape:window-y="0"
     inkscape:window-maximized="1"
     inkscape:current-layer="svg4" />
  <path
     d="M 11,5.0081682 V 3.2510093 H 5 A 4,4.7944308 0 0 0 1.416,10.175366 0.50043281,0.59982264 0 1 1 0.52,10.709945 5,5.9930385 0 0 1 5,2.0524016 h 6 V 0.29524271 a 0.25,0.29965193 0 0 1 0.41,-0.23013268 l 2.36,2.35646277 c 0.12,0.1198607 0.12,0.3404046 0,0.4602654 L 11.41,5.2383009 A 0.25,0.29965193 0 0 1 11,5.0081682 Z m 3.81,0.1030801 A 0.5,0.59930385 0 0 1 15.48,5.3809352 5,5.9930385 0 0 1 11,14.038479 H 5 v 1.757159 A 0.25,0.29965193 0 0 1 4.59,16.025771 L 2.23,13.669307 a 0.25,0.29965193 0 0 1 0,-0.460264 L 4.59,10.852579 A 0.25,0.29965193 0 0 1 5,11.082712 v 1.757159 h 6 A 4,4.7944308 0 0 0 14.585,5.9155143 0.5,0.59930385 0 0 1 14.81,5.1124471 Z"
     id="path2"
     style="stroke-width:1.09481" />
  <text
     xml:space="preserve"
     style="font-size:6.11301px;line-height:1.25;font-family:sans-serif;stroke-width:1.14619"
     x="5.2161884"
     y="11.366179"
     id="text12062"
     transform="scale(1.1297766,0.88513075)"><tspan
       sodipodi:role="line"
       id="tspan12060"
       x="5.2161884"
       y="11.366179"
       style="font-style:normal;font-variant:normal;font-weight:bold;font-stretch:normal;font-family:sans-serif;-inkscape-font-specification:'sans-serif Bold';stroke-width:1.14619">A</tspan></text>
</svg>
