<?xml version="1.0" encoding="UTF-8" standalone="no"?>
<svg
   width="16"
   height="16"
   fill="currentColor"
   class="bi bi-table"
   viewBox="0 0 16 16"
   version="1.1"
   id="svg4"
   sodipodi:docname="spreadsheet_data.svg"
   inkscape:version="1.1.2 (0a00cf5339, 2022-02-04)"
   xmlns:inkscape="http://www.inkscape.org/namespaces/inkscape"
   xmlns:sodipodi="http://sodipodi.sourceforge.net/DTD/sodipodi-0.dtd"
   xmlns="http://www.w3.org/2000/svg"
   xmlns:svg="http://www.w3.org/2000/svg">
  <defs
     id="defs8" />
  <sodipodi:namedview
     id="namedview6"
     pagecolor="#ffffff"
     bordercolor="#666666"
     borderopacity="1.0"
     inkscape:pageshadow="2"
     inkscape:pageopacity="0.0"
     inkscape:pagecheckerboard="0"
     showgrid="false"
     inkscape:zoom="46.4375"
     inkscape:cx="8.0323015"
     inkscape:cy="8.0107672"
     inkscape:window-width="3840"
     inkscape:window-height="2479"
     inkscape:window-x="0"
     inkscape:window-y="0"
     inkscape:window-maximized="1"
     inkscape:current-layer="svg4" />
  <path
     d="M -0.02892623,1.5003382 A 1.5482435,1.547066 0 0 1 1.5193173,-0.04672779 h 9.2894607 a 1.5482435,1.547066 0 0 1 1.548245,1.54706599 v 9.2823958 a 1.5482435,1.547066 0 0 1 -1.548245,1.547067 H 1.5193173 A 1.5482435,1.547066 0 0 1 -0.02892623,10.782734 Z M 11.582901,3.0474042 H 8.4864131 v 2.3205991 h 3.0964879 z m 0,3.0941321 H 8.4864131 v 2.3205989 h 3.0964879 z m 0,3.0941319 H 8.4864131 v 2.3205988 h 2.3223649 a 0.77412176,0.773533 0 0 0 0.774123,-0.773533 z M 7.7122914,11.556267 V 9.2356682 H 4.6158043 v 2.3205988 z m -3.8706088,0 V 9.2356682 H 0.74519553 V 10.782734 A 0.77412176,0.773533 0 0 0 1.5193173,11.556267 Z M 0.74519553,8.4621352 H 3.8416826 V 6.1415363 H 0.74519553 Z m 0,-3.0941319 H 3.8416826 V 3.0474042 H 0.74519553 Z M 4.6158043,3.0474042 V 5.3680033 H 7.7122914 V 3.0474042 Z M 7.7122914,6.1415363 H 4.6158043 v 2.3205989 h 3.0964871 z"
     id="path2"
     style="stroke-width:0.773828" />
  <path
     id="path2-0"
     d="m 12.803847,9.6884486 a 3.2115228,3.1683925 0 1 1 0,6.3367834 3.2115228,3.1683925 0 0 1 0,-6.3367834 z m 0.324826,5.2993604 1.376364,-1.357882 a 0.45936883,0.45319956 0 0 0 -0.649644,-0.64092 l -0.592757,0.585699 v -2.528377 a 0.45878896,0.45262744 0 0 0 -0.917576,0 v 2.528377 l -0.592754,-0.585699 a 0.45936883,0.45319956 0 0 0 -0.649646,0.64092 l 1.376367,1.357882 a 0.45878896,0.45262744 0 0 0 0.649646,0 z"
     style="stroke-width:0.911394" />
</svg>
